%TF.GenerationSoftware,Altium Limited,Altium Designer,24.1.2 (44)*%
G04 Layer_Color=65535*
%FSLAX45Y45*%
%MOMM*%
%TF.SameCoordinates,B732CBCC-E828-4C79-96F4-07D60C07BBD8*%
%TF.FilePolarity,Positive*%
%TF.FileFunction,Legend,Top*%
%TF.Part,Single*%
G01*
G75*
%TA.AperFunction,NonConductor*%
%ADD42C,0.20000*%
%ADD43C,0.50800*%
%ADD44C,0.25400*%
%ADD45C,0.12700*%
%ADD46C,0.15240*%
%ADD47C,0.15000*%
D42*
X3515000Y1890000D02*
G03*
X3515000Y1890000I-10000J0D01*
G01*
X2992500Y1492500D02*
G03*
X2992500Y1492500I-10000J0D01*
G01*
X6532500Y2325000D02*
G03*
X6532500Y2325000I-10000J0D01*
G01*
X2872500Y1956000D02*
G03*
X2872500Y1956000I-10000J0D01*
G01*
X2410000Y2102500D02*
G03*
X2410000Y2102500I-10000J0D01*
G01*
D43*
X6797800Y2785000D02*
G03*
X6721600Y2785000I-38100J0D01*
G01*
D02*
G03*
X6797800Y2785000I38100J0D01*
G01*
X6789800Y157500D02*
G03*
X6713600Y157500I-38100J0D01*
G01*
D02*
G03*
X6789800Y157500I38100J0D01*
G01*
D44*
X2196400Y1403700D02*
G03*
X2196400Y1429100I0J12700D01*
G01*
D02*
G03*
X2196400Y1403700I0J-12700D01*
G01*
X2188900Y2416600D02*
G03*
X2188900Y2391200I0J-12700D01*
G01*
D02*
G03*
X2188900Y2416600I0J12700D01*
G01*
D45*
X3602500Y1935500D02*
Y1990000D01*
Y1590000D02*
Y1644500D01*
X4002500Y1935500D02*
Y1990000D01*
Y1590000D02*
Y1644500D01*
X3602500Y1990000D02*
X3657000D01*
X3602500Y1590000D02*
X3657000D01*
X3948000Y1990000D02*
X4002500D01*
X3948000Y1590000D02*
X4002500D01*
X2427500Y857500D02*
Y1207500D01*
Y857500D02*
X2551500D01*
X3077500D02*
Y1207500D01*
X2953500Y857500D02*
X3077500D01*
X6700000Y2250000D02*
X7205000D01*
X5155000Y710000D02*
Y2250000D01*
X6700000Y710000D02*
X7205000D01*
Y2250000D01*
X2492500Y1790000D02*
Y1884000D01*
X2782500Y1790000D02*
Y1884000D01*
X2699500Y1790000D02*
X2782500D01*
X2492500D02*
X2575500D01*
X4496000Y1830000D02*
Y1930000D01*
X4399000Y1830000D02*
Y1930000D01*
X4621000Y1838500D02*
Y1938500D01*
X4524000Y1838500D02*
Y1938500D01*
X2770000Y2174500D02*
Y2268500D01*
X2480000Y2174500D02*
Y2268500D01*
X2563000D01*
X2687000D02*
X2770000D01*
D46*
X574800Y2647840D02*
Y2922160D01*
X6696200D01*
Y2647840D02*
Y2922160D01*
X574800Y2647840D02*
X6696200D01*
X1663000Y1322420D02*
X1917000D01*
X2102420Y715360D02*
Y1304640D01*
X1663000Y697580D02*
X1917000D01*
X1477580Y715360D02*
Y1304640D01*
X566800Y20340D02*
Y294660D01*
X6688200D01*
Y20340D02*
Y294660D01*
X566800Y20340D02*
X6688200D01*
X1470080Y1702860D02*
Y2292140D01*
X1655500Y1685080D02*
X1909500D01*
X2094920Y1702860D02*
Y2292140D01*
X1655500Y2309920D02*
X1909500D01*
D47*
X324500Y2514500D02*
X460500D01*
X324500Y1590500D02*
X460500D01*
X-42500D02*
X40500D01*
X-42500D02*
Y2514500D01*
X40500D01*
X329500Y1404000D02*
X465500D01*
X329500Y480000D02*
X465500D01*
X-37500D02*
X45500D01*
X-37500D02*
Y1404000D01*
X45500D01*
%TF.MD5,9eccdad4cb7f5a18ba1431b66ae69743*%
M02*
