%TF.GenerationSoftware,Altium Limited,Altium Designer,24.1.2 (44)*%
G04 Layer_Color=8421504*
%FSLAX45Y45*%
%MOMM*%
%TF.SameCoordinates,B732CBCC-E828-4C79-96F4-07D60C07BBD8*%
%TF.FilePolarity,Positive*%
%TF.FileFunction,Paste,Top*%
%TF.Part,Single*%
G01*
G75*
%TA.AperFunction,SMDPad,CuDef*%
G04:AMPARAMS|DCode=13|XSize=0.84mm|YSize=0.27mm|CornerRadius=0.03375mm|HoleSize=0mm|Usage=FLASHONLY|Rotation=0.000|XOffset=0mm|YOffset=0mm|HoleType=Round|Shape=RoundedRectangle|*
%AMROUNDEDRECTD13*
21,1,0.84000,0.20250,0,0,0.0*
21,1,0.77250,0.27000,0,0,0.0*
1,1,0.06750,0.38625,-0.10125*
1,1,0.06750,-0.38625,-0.10125*
1,1,0.06750,-0.38625,0.10125*
1,1,0.06750,0.38625,0.10125*
%
%ADD13ROUNDEDRECTD13*%
G04:AMPARAMS|DCode=14|XSize=0.84mm|YSize=0.27mm|CornerRadius=0.03375mm|HoleSize=0mm|Usage=FLASHONLY|Rotation=90.000|XOffset=0mm|YOffset=0mm|HoleType=Round|Shape=RoundedRectangle|*
%AMROUNDEDRECTD14*
21,1,0.84000,0.20250,0,0,90.0*
21,1,0.77250,0.27000,0,0,90.0*
1,1,0.06750,0.10125,0.38625*
1,1,0.06750,0.10125,-0.38625*
1,1,0.06750,-0.10125,-0.38625*
1,1,0.06750,-0.10125,0.38625*
%
%ADD14ROUNDEDRECTD14*%
%ADD15R,3.25000X2.15000*%
%ADD16R,0.95000X2.15000*%
G04:AMPARAMS|DCode=17|XSize=0.64mm|YSize=0.72mm|CornerRadius=0.08mm|HoleSize=0mm|Usage=FLASHONLY|Rotation=90.000|XOffset=0mm|YOffset=0mm|HoleType=Round|Shape=RoundedRectangle|*
%AMROUNDEDRECTD17*
21,1,0.64000,0.56000,0,0,90.0*
21,1,0.48000,0.72000,0,0,90.0*
1,1,0.16000,0.28000,0.24000*
1,1,0.16000,0.28000,-0.24000*
1,1,0.16000,-0.28000,-0.24000*
1,1,0.16000,-0.28000,0.24000*
%
%ADD17ROUNDEDRECTD17*%
%TA.AperFunction,ConnectorPad*%
%ADD18R,0.40000X0.80000*%
%TA.AperFunction,BGAPad,CuDef*%
%ADD19R,1.20000X1.20000*%
%TA.AperFunction,ConnectorPad*%
%ADD21R,0.80000X0.40000*%
%TA.AperFunction,SMDPad,CuDef*%
%ADD22R,0.80000X0.80000*%
%ADD23R,1.29540X1.54940*%
G04:AMPARAMS|DCode=24|XSize=0.54mm|YSize=0.6mm|CornerRadius=0.0675mm|HoleSize=0mm|Usage=FLASHONLY|Rotation=180.000|XOffset=0mm|YOffset=0mm|HoleType=Round|Shape=RoundedRectangle|*
%AMROUNDEDRECTD24*
21,1,0.54000,0.46500,0,0,180.0*
21,1,0.40500,0.60000,0,0,180.0*
1,1,0.13500,-0.20250,0.23250*
1,1,0.13500,0.20250,0.23250*
1,1,0.13500,0.20250,-0.23250*
1,1,0.13500,-0.20250,-0.23250*
%
%ADD24ROUNDEDRECTD24*%
%ADD25R,0.60000X0.54000*%
%ADD26R,0.90000X0.70000*%
G04:AMPARAMS|DCode=27|XSize=0.54mm|YSize=0.6mm|CornerRadius=0.0675mm|HoleSize=0mm|Usage=FLASHONLY|Rotation=270.000|XOffset=0mm|YOffset=0mm|HoleType=Round|Shape=RoundedRectangle|*
%AMROUNDEDRECTD27*
21,1,0.54000,0.46500,0,0,270.0*
21,1,0.40500,0.60000,0,0,270.0*
1,1,0.13500,-0.23250,-0.20250*
1,1,0.13500,-0.23250,0.20250*
1,1,0.13500,0.23250,0.20250*
1,1,0.13500,0.23250,-0.20250*
%
%ADD27ROUNDEDRECTD27*%
%ADD28R,0.60000X0.80000*%
%ADD29R,0.70000X0.90000*%
%ADD30R,0.54000X0.60000*%
G04:AMPARAMS|DCode=31|XSize=0.59mm|YSize=0.61mm|CornerRadius=0.04425mm|HoleSize=0mm|Usage=FLASHONLY|Rotation=90.000|XOffset=0mm|YOffset=0mm|HoleType=Round|Shape=RoundedRectangle|*
%AMROUNDEDRECTD31*
21,1,0.59000,0.52150,0,0,90.0*
21,1,0.50150,0.61000,0,0,90.0*
1,1,0.08850,0.26075,0.25075*
1,1,0.08850,0.26075,-0.25075*
1,1,0.08850,-0.26075,-0.25075*
1,1,0.08850,-0.26075,0.25075*
%
%ADD31ROUNDEDRECTD31*%
G04:AMPARAMS|DCode=32|XSize=0.64mm|YSize=0.72mm|CornerRadius=0.08mm|HoleSize=0mm|Usage=FLASHONLY|Rotation=0.000|XOffset=0mm|YOffset=0mm|HoleType=Round|Shape=RoundedRectangle|*
%AMROUNDEDRECTD32*
21,1,0.64000,0.56000,0,0,0.0*
21,1,0.48000,0.72000,0,0,0.0*
1,1,0.16000,0.24000,-0.28000*
1,1,0.16000,-0.24000,-0.28000*
1,1,0.16000,-0.24000,0.28000*
1,1,0.16000,0.24000,0.28000*
%
%ADD32ROUNDEDRECTD32*%
G04:AMPARAMS|DCode=33|XSize=0.6mm|YSize=0.67mm|CornerRadius=0.075mm|HoleSize=0mm|Usage=FLASHONLY|Rotation=270.000|XOffset=0mm|YOffset=0mm|HoleType=Round|Shape=RoundedRectangle|*
%AMROUNDEDRECTD33*
21,1,0.60000,0.52000,0,0,270.0*
21,1,0.45000,0.67000,0,0,270.0*
1,1,0.15000,-0.26000,-0.22500*
1,1,0.15000,-0.26000,0.22500*
1,1,0.15000,0.26000,0.22500*
1,1,0.15000,0.26000,-0.22500*
%
%ADD33ROUNDEDRECTD33*%
%TA.AperFunction,ConnectorPad*%
%ADD34R,1.15000X0.59000*%
%ADD35R,1.15000X0.29800*%
%TA.AperFunction,SMDPad,CuDef*%
%ADD36R,0.30480X0.55880*%
%ADD76R,1.26000X1.26000*%
G36*
X6032500Y1585000D02*
Y1705000D01*
X6092500D01*
X6152500Y1645000D01*
Y1585000D01*
X6032500D01*
D02*
G37*
D13*
X3996000Y1890000D02*
D03*
Y1840000D02*
D03*
Y1790000D02*
D03*
Y1740000D02*
D03*
Y1690000D02*
D03*
X3609000D02*
D03*
Y1740000D02*
D03*
Y1790000D02*
D03*
Y1840000D02*
D03*
Y1890000D02*
D03*
D14*
X3702500Y1983500D02*
D03*
X3752500D02*
D03*
X3802500D02*
D03*
X3852500D02*
D03*
X3902500D02*
D03*
Y1596500D02*
D03*
X3852500D02*
D03*
X3802500D02*
D03*
X3752500D02*
D03*
X3702500D02*
D03*
D15*
X2752500Y742500D02*
D03*
D16*
X2522500Y1322500D02*
D03*
X2752500D02*
D03*
X2982500D02*
D03*
D17*
X2337500Y789700D02*
D03*
Y877500D02*
D03*
X3335000Y1331400D02*
D03*
Y1243600D02*
D03*
X3207500Y1246100D02*
D03*
Y1333900D02*
D03*
D18*
X6352500Y2180000D02*
D03*
X6522500Y780000D02*
D03*
X6437500D02*
D03*
X6352500D02*
D03*
X6267500D02*
D03*
X6182500D02*
D03*
X6097500D02*
D03*
X6012500D02*
D03*
X5927500D02*
D03*
X5842500D02*
D03*
X5757500D02*
D03*
X5672500D02*
D03*
X5587500D02*
D03*
X5502500D02*
D03*
X5417500D02*
D03*
X5332500D02*
D03*
Y2180000D02*
D03*
X5417500D02*
D03*
X5502500D02*
D03*
X5587500D02*
D03*
X5672500D02*
D03*
X5757500D02*
D03*
X5842500D02*
D03*
X5927500D02*
D03*
X6012500D02*
D03*
X6097500D02*
D03*
X6182500D02*
D03*
X6267500D02*
D03*
X6437500D02*
D03*
X6522500D02*
D03*
D19*
X5927500Y1645000D02*
D03*
X5762500D02*
D03*
Y1480000D02*
D03*
Y1315000D02*
D03*
X5927500D02*
D03*
X6092500D02*
D03*
Y1480000D02*
D03*
X5927500D02*
D03*
D21*
X6627500Y2075000D02*
D03*
Y1990000D02*
D03*
Y1905000D02*
D03*
Y1820000D02*
D03*
Y1735000D02*
D03*
Y1650000D02*
D03*
Y1565000D02*
D03*
Y1480000D02*
D03*
Y1395000D02*
D03*
Y1310000D02*
D03*
Y1225000D02*
D03*
Y1140000D02*
D03*
Y1055000D02*
D03*
Y970000D02*
D03*
Y885000D02*
D03*
X5227500D02*
D03*
Y970000D02*
D03*
Y1055000D02*
D03*
Y1140000D02*
D03*
Y1225000D02*
D03*
Y1310000D02*
D03*
Y1395000D02*
D03*
Y1480000D02*
D03*
Y1565000D02*
D03*
Y1650000D02*
D03*
Y1735000D02*
D03*
Y1820000D02*
D03*
Y1905000D02*
D03*
Y1990000D02*
D03*
Y2075000D02*
D03*
D22*
Y780000D02*
D03*
X6627500D02*
D03*
X5227500Y2180000D02*
D03*
X6627500D02*
D03*
D23*
X2015000Y612500D02*
D03*
X1565000D02*
D03*
Y1407500D02*
D03*
X2015000D02*
D03*
X1557500Y2395000D02*
D03*
Y1600000D02*
D03*
X2007500Y2395000D02*
D03*
Y1600000D02*
D03*
D24*
X2328200Y635000D02*
D03*
X2241800D02*
D03*
X4057500Y1210000D02*
D03*
X3971100D02*
D03*
X4055700Y1320000D02*
D03*
X3969300D02*
D03*
X2659300Y1602500D02*
D03*
X2745700D02*
D03*
X6525000Y2550000D02*
D03*
X6611400D02*
D03*
D25*
X2205000Y784300D02*
D03*
Y870700D02*
D03*
X2310000Y1696800D02*
D03*
Y1783200D02*
D03*
X3382500Y1639112D02*
D03*
Y1552712D02*
D03*
X3072500Y2074300D02*
D03*
Y2160700D02*
D03*
X2310000Y2108600D02*
D03*
Y2195000D02*
D03*
X3157500Y1623900D02*
D03*
Y1537500D02*
D03*
X3272500Y1628200D02*
D03*
Y1541800D02*
D03*
D26*
X3357500Y2065000D02*
D03*
Y2195000D02*
D03*
X3477500Y1055000D02*
D03*
Y925000D02*
D03*
X3205000Y922500D02*
D03*
Y1052500D02*
D03*
X3342500Y1055000D02*
D03*
Y925000D02*
D03*
X3462500Y1360000D02*
D03*
Y1230000D02*
D03*
X3935000Y877500D02*
D03*
Y1007500D02*
D03*
X4095000Y1010000D02*
D03*
Y880000D02*
D03*
X3205000Y2187500D02*
D03*
Y2057500D02*
D03*
D27*
X4150000Y1635700D02*
D03*
Y1549300D02*
D03*
X4447500Y1583900D02*
D03*
Y1497500D02*
D03*
X4570000Y1588200D02*
D03*
Y1501800D02*
D03*
X4152500Y1739300D02*
D03*
Y1825700D02*
D03*
X867500Y2311800D02*
D03*
Y2398200D02*
D03*
X837500Y1295000D02*
D03*
Y1208600D02*
D03*
D28*
X2637500Y1754000D02*
D03*
X2732500Y1956000D02*
D03*
X2542500D02*
D03*
X2625000Y2304500D02*
D03*
X2530000Y2102500D02*
D03*
X2720000D02*
D03*
D29*
X4447500Y1372500D02*
D03*
X4577500D02*
D03*
X4450000Y1240000D02*
D03*
X4580000D02*
D03*
X3942500Y1437500D02*
D03*
X4072500D02*
D03*
D30*
X4570000Y1707500D02*
D03*
X4656000D02*
D03*
X4367500Y1702500D02*
D03*
X4453500D02*
D03*
X4533200Y2035000D02*
D03*
X4446800D02*
D03*
X4533200Y2157500D02*
D03*
X4446800D02*
D03*
X1175700Y2232500D02*
D03*
X1089300D02*
D03*
X1096800Y1857500D02*
D03*
X1183200D02*
D03*
X1158200Y707500D02*
D03*
X1150700Y1087500D02*
D03*
X1071800Y707500D02*
D03*
X1064300Y1087500D02*
D03*
D31*
X4447500Y1921500D02*
D03*
Y1838500D02*
D03*
X4572500Y1930000D02*
D03*
Y1847000D02*
D03*
D32*
X2466100Y1600000D02*
D03*
X2553900D02*
D03*
X6526100Y2422500D02*
D03*
X6613900D02*
D03*
D33*
X2320000Y1987400D02*
D03*
Y1900000D02*
D03*
D34*
X640000Y2372500D02*
D03*
Y1732500D02*
D03*
Y1812500D02*
D03*
Y2292500D02*
D03*
X645000Y1262000D02*
D03*
Y622000D02*
D03*
Y702000D02*
D03*
Y1182000D02*
D03*
D35*
X640000Y2227500D02*
D03*
Y1877500D02*
D03*
Y1927500D02*
D03*
Y2177500D02*
D03*
Y2127500D02*
D03*
Y1977500D02*
D03*
Y2027500D02*
D03*
Y2077500D02*
D03*
X645000Y967000D02*
D03*
Y1117000D02*
D03*
Y767000D02*
D03*
Y817000D02*
D03*
Y1067000D02*
D03*
Y1017000D02*
D03*
Y867000D02*
D03*
Y917000D02*
D03*
D36*
X1139250Y965000D02*
D03*
X1075750D02*
D03*
X1099000Y1982500D02*
D03*
X1162500D02*
D03*
X1099000Y2110000D02*
D03*
X1162500D02*
D03*
X1164250Y2352500D02*
D03*
X1141750Y835000D02*
D03*
X1134250Y1212500D02*
D03*
X1078250Y835000D02*
D03*
X1100750Y2352500D02*
D03*
X1070750Y1212500D02*
D03*
D76*
X3802500Y1790000D02*
D03*
%TF.MD5,af9127f03c289f806291fd2e962a62eb*%
M02*
