%TF.GenerationSoftware,Altium Limited,Altium Designer,24.1.2 (44)*%
G04 Layer_Physical_Order=2*
G04 Layer_Color=16711680*
%FSLAX45Y45*%
%MOMM*%
%TF.SameCoordinates,B732CBCC-E828-4C79-96F4-07D60C07BBD8*%
%TF.FilePolarity,Positive*%
%TF.FileFunction,Copper,L2,Bot,Signal*%
%TF.Part,Single*%
G01*
G75*
%TA.AperFunction,Conductor*%
%ADD10C,0.12000*%
%ADD11C,0.20000*%
%ADD37C,0.25400*%
%TA.AperFunction,ComponentPad*%
%ADD38C,1.57480*%
%ADD39O,2.20000X1.00000*%
%ADD40O,1.80000X1.00000*%
%TA.AperFunction,ViaPad*%
%ADD41C,0.65000*%
G36*
X6694460Y2263941D02*
X6688520Y2261481D01*
X6683764Y2250000D01*
Y710000D01*
X6688520Y698520D01*
X6698326Y694457D01*
X6699978Y23991D01*
X6691008Y15000D01*
X26348D01*
X21872Y14999D01*
X13602Y18424D01*
X11092Y20933D01*
X13849Y32500D01*
X13849Y32501D01*
Y2921392D01*
X18649Y2932499D01*
X31346Y2932500D01*
X6692814D01*
X6694460Y2263941D01*
D02*
G37*
%LPC*%
G36*
X5806841Y2878740D02*
X5782159D01*
X5758318Y2872352D01*
X5736942Y2860011D01*
X5719489Y2842558D01*
X5707148Y2821182D01*
X5700760Y2797341D01*
Y2772659D01*
X5707148Y2748818D01*
X5719489Y2727442D01*
X5736942Y2709989D01*
X5758318Y2697648D01*
X5782159Y2691260D01*
X5806841D01*
X5830682Y2697648D01*
X5852058Y2709989D01*
X5869511Y2727442D01*
X5881852Y2748818D01*
X5888240Y2772659D01*
Y2797341D01*
X5881852Y2821182D01*
X5869511Y2842558D01*
X5852058Y2860011D01*
X5830682Y2872352D01*
X5806841Y2878740D01*
D02*
G37*
G36*
X5552841D02*
X5528159D01*
X5504318Y2872352D01*
X5482942Y2860011D01*
X5465489Y2842558D01*
X5453148Y2821182D01*
X5446760Y2797341D01*
Y2772659D01*
X5453148Y2748818D01*
X5465489Y2727442D01*
X5482942Y2709989D01*
X5504318Y2697648D01*
X5528159Y2691260D01*
X5552841D01*
X5576682Y2697648D01*
X5598058Y2709989D01*
X5615511Y2727442D01*
X5627852Y2748818D01*
X5634240Y2772659D01*
Y2797341D01*
X5627852Y2821182D01*
X5615511Y2842558D01*
X5598058Y2860011D01*
X5576682Y2872352D01*
X5552841Y2878740D01*
D02*
G37*
G36*
X5298841D02*
X5274159D01*
X5250318Y2872352D01*
X5228942Y2860011D01*
X5211489Y2842558D01*
X5199148Y2821182D01*
X5192760Y2797341D01*
Y2772659D01*
X5199148Y2748818D01*
X5211489Y2727442D01*
X5228942Y2709989D01*
X5250318Y2697648D01*
X5274159Y2691260D01*
X5298841D01*
X5322682Y2697648D01*
X5344058Y2709989D01*
X5361511Y2727442D01*
X5373852Y2748818D01*
X5380240Y2772659D01*
Y2797341D01*
X5373852Y2821182D01*
X5361511Y2842558D01*
X5344058Y2860011D01*
X5322682Y2872352D01*
X5298841Y2878740D01*
D02*
G37*
G36*
X5044841D02*
X5020159D01*
X4996318Y2872352D01*
X4974942Y2860011D01*
X4957489Y2842558D01*
X4945148Y2821182D01*
X4938760Y2797341D01*
Y2772659D01*
X4945148Y2748818D01*
X4957489Y2727442D01*
X4974942Y2709989D01*
X4996318Y2697648D01*
X5020159Y2691260D01*
X5044841D01*
X5068682Y2697648D01*
X5090058Y2709989D01*
X5107511Y2727442D01*
X5119852Y2748818D01*
X5126240Y2772659D01*
Y2797341D01*
X5119852Y2821182D01*
X5107511Y2842558D01*
X5090058Y2860011D01*
X5068682Y2872352D01*
X5044841Y2878740D01*
D02*
G37*
G36*
X4790841D02*
X4766159D01*
X4742318Y2872352D01*
X4720942Y2860011D01*
X4703489Y2842558D01*
X4691148Y2821182D01*
X4684760Y2797341D01*
Y2772659D01*
X4691148Y2748818D01*
X4703489Y2727442D01*
X4720942Y2709989D01*
X4742318Y2697648D01*
X4766159Y2691260D01*
X4790841D01*
X4814682Y2697648D01*
X4836058Y2709989D01*
X4853511Y2727442D01*
X4865852Y2748818D01*
X4872240Y2772659D01*
Y2797341D01*
X4865852Y2821182D01*
X4853511Y2842558D01*
X4836058Y2860011D01*
X4814682Y2872352D01*
X4790841Y2878740D01*
D02*
G37*
G36*
X4536841D02*
X4512159D01*
X4488318Y2872352D01*
X4466942Y2860011D01*
X4449489Y2842558D01*
X4437148Y2821182D01*
X4430760Y2797341D01*
Y2772659D01*
X4437148Y2748818D01*
X4449489Y2727442D01*
X4466942Y2709989D01*
X4488318Y2697648D01*
X4512159Y2691260D01*
X4536841D01*
X4560682Y2697648D01*
X4582058Y2709989D01*
X4599511Y2727442D01*
X4611852Y2748818D01*
X4618240Y2772659D01*
Y2797341D01*
X4611852Y2821182D01*
X4599511Y2842558D01*
X4582058Y2860011D01*
X4560682Y2872352D01*
X4536841Y2878740D01*
D02*
G37*
G36*
X4282841D02*
X4258159D01*
X4234318Y2872352D01*
X4212942Y2860011D01*
X4195489Y2842558D01*
X4183148Y2821182D01*
X4176760Y2797341D01*
Y2772659D01*
X4183148Y2748818D01*
X4195489Y2727442D01*
X4212942Y2709989D01*
X4234318Y2697648D01*
X4258159Y2691260D01*
X4282841D01*
X4306682Y2697648D01*
X4328058Y2709989D01*
X4345511Y2727442D01*
X4357852Y2748818D01*
X4364240Y2772659D01*
Y2797341D01*
X4357852Y2821182D01*
X4345511Y2842558D01*
X4328058Y2860011D01*
X4306682Y2872352D01*
X4282841Y2878740D01*
D02*
G37*
G36*
X4028841D02*
X4004159D01*
X3980318Y2872352D01*
X3958942Y2860011D01*
X3941489Y2842558D01*
X3929148Y2821182D01*
X3922760Y2797341D01*
Y2772659D01*
X3929148Y2748818D01*
X3941489Y2727442D01*
X3958942Y2709989D01*
X3980318Y2697648D01*
X4004159Y2691260D01*
X4028841D01*
X4052682Y2697648D01*
X4074058Y2709989D01*
X4091511Y2727442D01*
X4103852Y2748818D01*
X4110240Y2772659D01*
Y2797341D01*
X4103852Y2821182D01*
X4091511Y2842558D01*
X4074058Y2860011D01*
X4052682Y2872352D01*
X4028841Y2878740D01*
D02*
G37*
G36*
X3774841D02*
X3750159D01*
X3726318Y2872352D01*
X3704942Y2860011D01*
X3687489Y2842558D01*
X3675148Y2821182D01*
X3668760Y2797341D01*
Y2772659D01*
X3675148Y2748818D01*
X3687489Y2727442D01*
X3704942Y2709989D01*
X3726318Y2697648D01*
X3750159Y2691260D01*
X3774841D01*
X3798682Y2697648D01*
X3820058Y2709989D01*
X3837511Y2727442D01*
X3849852Y2748818D01*
X3856240Y2772659D01*
Y2797341D01*
X3849852Y2821182D01*
X3837511Y2842558D01*
X3820058Y2860011D01*
X3798682Y2872352D01*
X3774841Y2878740D01*
D02*
G37*
G36*
X3520841D02*
X3496159D01*
X3472318Y2872352D01*
X3450942Y2860011D01*
X3433489Y2842558D01*
X3421148Y2821182D01*
X3414760Y2797341D01*
Y2772659D01*
X3421148Y2748818D01*
X3433489Y2727442D01*
X3450942Y2709989D01*
X3472318Y2697648D01*
X3496159Y2691260D01*
X3520841D01*
X3544682Y2697648D01*
X3566058Y2709989D01*
X3583511Y2727442D01*
X3595852Y2748818D01*
X3602240Y2772659D01*
Y2797341D01*
X3595852Y2821182D01*
X3583511Y2842558D01*
X3566058Y2860011D01*
X3544682Y2872352D01*
X3520841Y2878740D01*
D02*
G37*
G36*
X3266841D02*
X3242159D01*
X3218318Y2872352D01*
X3196942Y2860011D01*
X3179489Y2842558D01*
X3167148Y2821182D01*
X3160760Y2797341D01*
Y2772659D01*
X3167148Y2748818D01*
X3179489Y2727442D01*
X3196942Y2709989D01*
X3218318Y2697648D01*
X3242159Y2691260D01*
X3266841D01*
X3290682Y2697648D01*
X3312058Y2709989D01*
X3329511Y2727442D01*
X3341852Y2748818D01*
X3348240Y2772659D01*
Y2797341D01*
X3341852Y2821182D01*
X3329511Y2842558D01*
X3312058Y2860011D01*
X3290682Y2872352D01*
X3266841Y2878740D01*
D02*
G37*
G36*
X3012841D02*
X2988159D01*
X2964318Y2872352D01*
X2942942Y2860011D01*
X2925489Y2842558D01*
X2913148Y2821182D01*
X2906760Y2797341D01*
Y2772659D01*
X2913148Y2748818D01*
X2925489Y2727442D01*
X2942942Y2709989D01*
X2964318Y2697648D01*
X2988159Y2691260D01*
X3012841D01*
X3036682Y2697648D01*
X3058058Y2709989D01*
X3075511Y2727442D01*
X3087852Y2748818D01*
X3094240Y2772659D01*
Y2797341D01*
X3087852Y2821182D01*
X3075511Y2842558D01*
X3058058Y2860011D01*
X3036682Y2872352D01*
X3012841Y2878740D01*
D02*
G37*
G36*
X2758841D02*
X2734159D01*
X2710318Y2872352D01*
X2688942Y2860011D01*
X2671489Y2842558D01*
X2659148Y2821182D01*
X2652760Y2797341D01*
Y2772659D01*
X2659148Y2748818D01*
X2671489Y2727442D01*
X2688942Y2709989D01*
X2710318Y2697648D01*
X2734159Y2691260D01*
X2758841D01*
X2782682Y2697648D01*
X2804058Y2709989D01*
X2821511Y2727442D01*
X2833852Y2748818D01*
X2840240Y2772659D01*
Y2797341D01*
X2833852Y2821182D01*
X2821511Y2842558D01*
X2804058Y2860011D01*
X2782682Y2872352D01*
X2758841Y2878740D01*
D02*
G37*
G36*
X2504841D02*
X2480159D01*
X2456318Y2872352D01*
X2434942Y2860011D01*
X2417489Y2842558D01*
X2405148Y2821182D01*
X2398760Y2797341D01*
Y2772659D01*
X2405148Y2748818D01*
X2417489Y2727442D01*
X2434942Y2709989D01*
X2456318Y2697648D01*
X2480159Y2691260D01*
X2504841D01*
X2528682Y2697648D01*
X2550058Y2709989D01*
X2567511Y2727442D01*
X2579852Y2748818D01*
X2586240Y2772659D01*
Y2797341D01*
X2579852Y2821182D01*
X2567511Y2842558D01*
X2550058Y2860011D01*
X2528682Y2872352D01*
X2504841Y2878740D01*
D02*
G37*
G36*
X2250841D02*
X2226159D01*
X2202318Y2872352D01*
X2180942Y2860011D01*
X2163489Y2842558D01*
X2151148Y2821182D01*
X2144760Y2797341D01*
Y2772659D01*
X2151148Y2748818D01*
X2163489Y2727442D01*
X2180942Y2709989D01*
X2202318Y2697648D01*
X2226159Y2691260D01*
X2250841D01*
X2274682Y2697648D01*
X2296058Y2709989D01*
X2313511Y2727442D01*
X2325852Y2748818D01*
X2332240Y2772659D01*
Y2797341D01*
X2325852Y2821182D01*
X2313511Y2842558D01*
X2296058Y2860011D01*
X2274682Y2872352D01*
X2250841Y2878740D01*
D02*
G37*
G36*
X1996841D02*
X1972159D01*
X1948318Y2872352D01*
X1926942Y2860011D01*
X1909489Y2842558D01*
X1897148Y2821182D01*
X1890760Y2797341D01*
Y2772659D01*
X1897148Y2748818D01*
X1909489Y2727442D01*
X1926942Y2709989D01*
X1948318Y2697648D01*
X1972159Y2691260D01*
X1996841D01*
X2020682Y2697648D01*
X2042058Y2709989D01*
X2059511Y2727442D01*
X2071852Y2748818D01*
X2078240Y2772659D01*
Y2797341D01*
X2071852Y2821182D01*
X2059511Y2842558D01*
X2042058Y2860011D01*
X2020682Y2872352D01*
X1996841Y2878740D01*
D02*
G37*
G36*
X1742841D02*
X1718159D01*
X1694318Y2872352D01*
X1672942Y2860011D01*
X1655489Y2842558D01*
X1643148Y2821182D01*
X1636760Y2797341D01*
Y2772659D01*
X1643148Y2748818D01*
X1655489Y2727442D01*
X1672942Y2709989D01*
X1694318Y2697648D01*
X1718159Y2691260D01*
X1742841D01*
X1766682Y2697648D01*
X1788058Y2709989D01*
X1805511Y2727442D01*
X1817852Y2748818D01*
X1824240Y2772659D01*
Y2797341D01*
X1817852Y2821182D01*
X1805511Y2842558D01*
X1788058Y2860011D01*
X1766682Y2872352D01*
X1742841Y2878740D01*
D02*
G37*
G36*
X1488841D02*
X1464159D01*
X1440318Y2872352D01*
X1418942Y2860011D01*
X1401489Y2842558D01*
X1389148Y2821182D01*
X1382760Y2797341D01*
Y2772659D01*
X1389148Y2748818D01*
X1401489Y2727442D01*
X1418942Y2709989D01*
X1440318Y2697648D01*
X1464159Y2691260D01*
X1488841D01*
X1512682Y2697648D01*
X1534058Y2709989D01*
X1551511Y2727442D01*
X1563852Y2748818D01*
X1570240Y2772659D01*
Y2797341D01*
X1563852Y2821182D01*
X1551511Y2842558D01*
X1534058Y2860011D01*
X1512682Y2872352D01*
X1488841Y2878740D01*
D02*
G37*
G36*
X1234841D02*
X1210159D01*
X1186318Y2872352D01*
X1164942Y2860011D01*
X1147489Y2842558D01*
X1135148Y2821182D01*
X1128760Y2797341D01*
Y2772659D01*
X1135148Y2748818D01*
X1147489Y2727442D01*
X1164942Y2709989D01*
X1186318Y2697648D01*
X1210159Y2691260D01*
X1234841D01*
X1258682Y2697648D01*
X1280058Y2709989D01*
X1297511Y2727442D01*
X1309852Y2748818D01*
X1316240Y2772659D01*
Y2797341D01*
X1309852Y2821182D01*
X1297511Y2842558D01*
X1280058Y2860011D01*
X1258682Y2872352D01*
X1234841Y2878740D01*
D02*
G37*
G36*
X726841D02*
X702159D01*
X678318Y2872352D01*
X656942Y2860011D01*
X639489Y2842558D01*
X627148Y2821182D01*
X620760Y2797341D01*
Y2772659D01*
X627148Y2748818D01*
X639489Y2727442D01*
X656942Y2709989D01*
X678318Y2697648D01*
X702159Y2691260D01*
X726841D01*
X750682Y2697648D01*
X772058Y2709989D01*
X789511Y2727442D01*
X801852Y2748818D01*
X808240Y2772659D01*
Y2797341D01*
X801852Y2821182D01*
X789511Y2842558D01*
X772058Y2860011D01*
X750682Y2872352D01*
X726841Y2878740D01*
D02*
G37*
G36*
X6314841D02*
X6290159D01*
X6266318Y2872352D01*
X6244942Y2860011D01*
X6227489Y2842558D01*
X6215148Y2821182D01*
X6208760Y2797341D01*
Y2772659D01*
X6215148Y2748818D01*
X6227489Y2727442D01*
X6244942Y2709989D01*
X6246302Y2709204D01*
X6248392Y2693333D01*
X6145820Y2590761D01*
X6134086Y2595621D01*
Y2597257D01*
X6126855Y2614716D01*
X6113493Y2628078D01*
X6096035Y2635309D01*
X6077138D01*
X6059680Y2628078D01*
X6046318Y2614716D01*
X6039086Y2597257D01*
Y2578361D01*
X6046318Y2560902D01*
X6050062Y2557158D01*
X5928416Y2435513D01*
X3833601D01*
X3825408Y2433883D01*
X3818461Y2429242D01*
X3035200Y1645980D01*
X3022500Y1651241D01*
Y1659448D01*
X3015269Y1676907D01*
X3010820Y1681356D01*
Y1696014D01*
X3781563Y2466757D01*
X5886385D01*
X5886386Y2466757D01*
X5897194Y2468907D01*
X5906357Y2475029D01*
X5988791Y2557464D01*
X6003076Y2567009D01*
X6014812Y2584573D01*
X6015586Y2588464D01*
X6015930Y2589088D01*
X6048370Y2691260D01*
X6060841D01*
X6084682Y2697648D01*
X6106058Y2709989D01*
X6123511Y2727442D01*
X6135852Y2748818D01*
X6142240Y2772659D01*
Y2797341D01*
X6135852Y2821182D01*
X6123511Y2842558D01*
X6106058Y2860011D01*
X6084682Y2872352D01*
X6060841Y2878740D01*
X6036159D01*
X6012318Y2872352D01*
X5990942Y2860011D01*
X5973489Y2842558D01*
X5961148Y2821182D01*
X5954760Y2797341D01*
Y2772659D01*
X5961148Y2748818D01*
X5973489Y2727442D01*
X5990942Y2709989D01*
X5994415Y2707984D01*
X5966136Y2618915D01*
X5961711Y2607182D01*
X5961656Y2607171D01*
X5952597Y2601118D01*
X5952493Y2601048D01*
X5952492Y2601048D01*
X5951872Y2600427D01*
X5874688Y2523243D01*
X3769866D01*
X3769864Y2523243D01*
X3759056Y2521093D01*
X3749894Y2514971D01*
X3749893Y2514970D01*
X3042700Y1807777D01*
X3030000Y1813038D01*
Y1814448D01*
X3022769Y1831907D01*
X3009407Y1845269D01*
X2991948Y1852500D01*
X2973052D01*
X2955593Y1845269D01*
X2942231Y1831907D01*
X2935000Y1814448D01*
Y1795552D01*
X2935587Y1794135D01*
X2821942Y1680490D01*
X2793125D01*
X2787865Y1693190D01*
X2792769Y1698093D01*
X2800000Y1715552D01*
Y1734448D01*
X2792769Y1751907D01*
X2779407Y1765269D01*
X2761948Y1772500D01*
X2743052D01*
X2725593Y1765269D01*
X2713567Y1753243D01*
X2685000D01*
X2674192Y1751093D01*
X2666300Y1745820D01*
X2216622D01*
X1448243Y2514198D01*
Y2545320D01*
X1448244Y2545321D01*
X1446094Y2556129D01*
X1440140Y2565040D01*
X1442423Y2570552D01*
Y2589448D01*
X1435192Y2606907D01*
X1421830Y2620269D01*
X1404371Y2627500D01*
X1385475D01*
X1368016Y2620269D01*
X1354654Y2606907D01*
X1347423Y2589448D01*
Y2570552D01*
X1354654Y2553093D01*
X1368016Y2539731D01*
X1385475Y2532500D01*
X1391758D01*
Y2502501D01*
X1391758Y2502499D01*
X1393908Y2491691D01*
X1400030Y2482529D01*
X1776432Y2106127D01*
X1771572Y2094394D01*
X964154D01*
X951913Y2106635D01*
X952500Y2108052D01*
Y2126948D01*
X945269Y2144407D01*
X931907Y2157769D01*
X914448Y2165000D01*
X895552D01*
X878093Y2157769D01*
X864731Y2144407D01*
X857500Y2126948D01*
Y2108052D01*
X864731Y2090593D01*
X878093Y2077231D01*
X895552Y2070000D01*
X914448D01*
X915865Y2070587D01*
X935572Y2050880D01*
X943841Y2045355D01*
X953596Y2043415D01*
X1360779D01*
X1366039Y2030715D01*
X1359731Y2024407D01*
X1352500Y2006948D01*
Y1988052D01*
X1359731Y1970593D01*
X1373093Y1957231D01*
X1390552Y1950000D01*
X1409448D01*
X1426907Y1957231D01*
X1438933Y1969257D01*
X1785802D01*
X2337730Y1417329D01*
X2346892Y1411207D01*
X2357700Y1409057D01*
X2357702Y1409057D01*
X3041029D01*
X3049515Y1396357D01*
X3044745Y1384842D01*
X3159565D01*
X3154795Y1396357D01*
X3163281Y1409057D01*
X3369799D01*
X3369800Y1409057D01*
X3380608Y1411207D01*
X3389771Y1417329D01*
X3479941Y1507500D01*
X3496948D01*
X3514407Y1514731D01*
X3527769Y1528093D01*
X3535000Y1545552D01*
Y1564448D01*
X3527769Y1581907D01*
X3514407Y1595269D01*
X3496948Y1602500D01*
X3478052D01*
X3460593Y1595269D01*
X3447231Y1581907D01*
X3440000Y1564448D01*
Y1547441D01*
X3358101Y1465543D01*
X3015384D01*
X3010418Y1478243D01*
X3020269Y1488093D01*
X3027500Y1505552D01*
Y1524448D01*
X3020269Y1541907D01*
X3007628Y1554547D01*
X3014573Y1564793D01*
X3607444Y2157664D01*
X3620144Y2152403D01*
Y2144352D01*
X3627375Y2126893D01*
X3640737Y2113531D01*
X3658196Y2106300D01*
X3677092D01*
X3694551Y2113531D01*
X3707913Y2126893D01*
X3710189Y2132389D01*
X3927331D01*
X4352818Y1706901D01*
X4367231Y1277573D01*
X4354812Y1268970D01*
X4346339Y1272480D01*
X4327442D01*
X4309984Y1265248D01*
X4296622Y1251886D01*
X4292426Y1241758D01*
X4289190Y1241412D01*
X4280389Y1241412D01*
X4240474D01*
X4240269Y1241907D01*
X4226907Y1255269D01*
X4209448Y1262500D01*
X4190552D01*
X4173093Y1255269D01*
X4159731Y1241907D01*
X4152500Y1224448D01*
Y1205552D01*
X4159731Y1188093D01*
X4173093Y1174731D01*
X4190552Y1167500D01*
X4209448D01*
X4226907Y1174731D01*
X4240269Y1188093D01*
X4244616Y1198589D01*
X4280390D01*
X4290332Y1198589D01*
X4291461Y1198814D01*
X4292608Y1198710D01*
X4296198Y1199094D01*
X4296622Y1198073D01*
X4309984Y1184711D01*
X4327442Y1177479D01*
X4346339D01*
X4357671Y1182174D01*
X4370611Y1174931D01*
X4373522Y1084397D01*
X4374123Y1081814D01*
X4374344Y1079172D01*
X4374944Y1078008D01*
X4375175Y1076849D01*
X4375332Y1076613D01*
X4375414Y1076260D01*
X4376959Y1074102D01*
X4378174Y1071747D01*
X4378207Y1071704D01*
X4379139Y1070917D01*
X4379816Y1069903D01*
X5219075Y230644D01*
X5203489Y215058D01*
X5191148Y193682D01*
X5184760Y169841D01*
Y145159D01*
X5191148Y121318D01*
X5203489Y99942D01*
X5220942Y82489D01*
X5242318Y70148D01*
X5266159Y63760D01*
X5290841D01*
X5314682Y70148D01*
X5336058Y82489D01*
X5353511Y99942D01*
X5365852Y121318D01*
X5372240Y145159D01*
Y169841D01*
X5365852Y193682D01*
X5353511Y215058D01*
X5336058Y232511D01*
X5314682Y244852D01*
X5290841Y251240D01*
X5266159D01*
X5260460Y249713D01*
X5260367Y249821D01*
X5259704Y250343D01*
X5259235Y251045D01*
X5183426Y326854D01*
X5189391Y338323D01*
X5189652Y338589D01*
X5829131D01*
X5960794Y206926D01*
X5953148Y193682D01*
X5946760Y169841D01*
Y145159D01*
X5953148Y121318D01*
X5965489Y99942D01*
X5982942Y82489D01*
X6004318Y70148D01*
X6028159Y63760D01*
X6052841D01*
X6076682Y70148D01*
X6098058Y82489D01*
X6115511Y99942D01*
X6127852Y121318D01*
X6134240Y145159D01*
Y169841D01*
X6127852Y193682D01*
X6115511Y215058D01*
X6098058Y232511D01*
X6076682Y244852D01*
X6052841Y251240D01*
X6028159D01*
X6004318Y244852D01*
X5991074Y237206D01*
X5853140Y375140D01*
X5846194Y379782D01*
X5838000Y381411D01*
X5198398D01*
X4651425Y928385D01*
X4657500Y943052D01*
Y961948D01*
X4650269Y979407D01*
X4636907Y992769D01*
X4619448Y1000000D01*
X4600552D01*
X4583093Y992769D01*
X4569731Y979407D01*
X4563611Y964630D01*
X4550767Y959513D01*
X4416051Y1094229D01*
X4411918Y1222745D01*
X4411915Y1222760D01*
X4411918Y1222775D01*
X4395333Y1716782D01*
X4394462Y1720504D01*
X4393718Y1724251D01*
X4393513Y1724557D01*
X4393429Y1724916D01*
X4391200Y1728022D01*
X4389079Y1731199D01*
X4385730Y1734549D01*
X4385727Y1734551D01*
X4385726Y1734554D01*
X3951340Y2168940D01*
X3944394Y2173582D01*
X3936200Y2175212D01*
X3710189D01*
X3707913Y2180707D01*
X3694551Y2194069D01*
X3677092Y2201300D01*
X3669041D01*
X3663780Y2214000D01*
X3842470Y2392690D01*
X5093338D01*
X5098198Y2380957D01*
X4777529Y2060288D01*
X4771407Y2051126D01*
X4769257Y2040317D01*
X4769257Y2040316D01*
Y1733933D01*
X4757231Y1721907D01*
X4750000Y1704448D01*
Y1685552D01*
X4757231Y1668093D01*
X4770593Y1654731D01*
X4788052Y1647500D01*
X4806948D01*
X4824407Y1654731D01*
X4837769Y1668093D01*
X4845000Y1685552D01*
Y1704448D01*
X4837769Y1721907D01*
X4825743Y1733933D01*
Y2028619D01*
X4942578Y2145454D01*
X4952443Y2137359D01*
X4951407Y2135808D01*
X4949257Y2125000D01*
X4949257Y2124999D01*
Y1720773D01*
X4943811Y1715327D01*
X4936580Y1697868D01*
Y1678971D01*
X4943811Y1661513D01*
X4957173Y1648151D01*
X4974632Y1640920D01*
X4993528D01*
X5010987Y1648151D01*
X5024349Y1661513D01*
X5031580Y1678971D01*
Y1697868D01*
X5024349Y1715327D01*
X5010987Y1728688D01*
X5005743Y1730860D01*
Y2113301D01*
X5204200Y2311759D01*
X6076067D01*
X6088093Y2299733D01*
X6105552Y2292502D01*
X6124448D01*
X6141907Y2299733D01*
X6155269Y2313095D01*
X6162500Y2330553D01*
Y2349450D01*
X6155269Y2366908D01*
X6141907Y2380270D01*
X6124448Y2387502D01*
X6105552D01*
X6088093Y2380270D01*
X6076067Y2368244D01*
X6019779D01*
X6014919Y2379978D01*
X6304002Y2669060D01*
X6304002Y2669061D01*
X6310125Y2678223D01*
X6311603Y2685656D01*
X6321155Y2689202D01*
X6324974Y2689276D01*
X6587510Y2426740D01*
Y257242D01*
X6574810Y247497D01*
X6560841Y251240D01*
X6536159D01*
X6512318Y244852D01*
X6490942Y232511D01*
X6473489Y215058D01*
X6461148Y193682D01*
X6454760Y169841D01*
Y145159D01*
X6461148Y121318D01*
X6473489Y99942D01*
X6490942Y82489D01*
X6512318Y70148D01*
X6536159Y63760D01*
X6560841D01*
X6584682Y70148D01*
X6606058Y82489D01*
X6623511Y99942D01*
X6635852Y121318D01*
X6642240Y145159D01*
Y169841D01*
X6638490Y183838D01*
Y2437298D01*
X6636549Y2447053D01*
X6631024Y2455322D01*
X6368207Y2718139D01*
X6377511Y2727442D01*
X6389852Y2748818D01*
X6396240Y2772659D01*
Y2797341D01*
X6389852Y2821182D01*
X6377511Y2842558D01*
X6360058Y2860011D01*
X6338682Y2872352D01*
X6314841Y2878740D01*
D02*
G37*
G36*
X2976948Y2162500D02*
X2958052D01*
X2940593Y2155269D01*
X2927231Y2141907D01*
X2920000Y2124448D01*
Y2105552D01*
X2927231Y2088093D01*
X2940593Y2074731D01*
X2945507Y2072696D01*
Y1960183D01*
X2939731Y1954407D01*
X2932500Y1936948D01*
Y1918052D01*
X2939731Y1900593D01*
X2953093Y1887231D01*
X2970552Y1880000D01*
X2989448D01*
X3006907Y1887231D01*
X3020269Y1900593D01*
X3027500Y1918052D01*
Y1936948D01*
X3020269Y1954407D01*
X3006907Y1967769D01*
X3001993Y1969804D01*
Y2082317D01*
X3007769Y2088093D01*
X3015000Y2105552D01*
Y2124448D01*
X3007769Y2141907D01*
X2994407Y2155269D01*
X2976948Y2162500D01*
D02*
G37*
G36*
X4202700Y1392410D02*
Y1347700D01*
X4247410D01*
X4239085Y1367798D01*
X4222798Y1384085D01*
X4202700Y1392410D01*
D02*
G37*
G36*
X4177300D02*
X4157202Y1384085D01*
X4140915Y1367798D01*
X4132590Y1347700D01*
X4177300D01*
Y1392410D01*
D02*
G37*
G36*
X3159565Y1359442D02*
X3114855D01*
Y1314731D01*
X3134953Y1323056D01*
X3151240Y1339344D01*
X3159565Y1359442D01*
D02*
G37*
G36*
X3089455D02*
X3044745D01*
X3053070Y1339344D01*
X3069357Y1323056D01*
X3089455Y1314731D01*
Y1359442D01*
D02*
G37*
G36*
X3471948Y1912500D02*
X3453052D01*
X3435593Y1905269D01*
X3422231Y1891907D01*
X3415000Y1874448D01*
Y1855552D01*
X3422231Y1838093D01*
X3435593Y1824731D01*
X3443252Y1821559D01*
X3444548Y1816693D01*
X3444618Y1807247D01*
X3433187Y1795816D01*
X3425955Y1778357D01*
Y1759461D01*
X3433187Y1742002D01*
X3446549Y1728640D01*
X3452044Y1726364D01*
Y1698673D01*
X3453674Y1690479D01*
X3458315Y1683533D01*
X3478011Y1663836D01*
X3597574Y1544274D01*
Y1101015D01*
X3599204Y1092821D01*
X3603845Y1085875D01*
X3609776Y1079943D01*
X3607500Y1074448D01*
Y1055552D01*
X3614731Y1038093D01*
X3628093Y1024731D01*
X3645552Y1017500D01*
X3664448D01*
X3681907Y1024731D01*
X3695269Y1038093D01*
X3702500Y1055552D01*
Y1074448D01*
X3695269Y1091907D01*
X3681907Y1105269D01*
X3664448Y1112500D01*
X3645552D01*
X3640397Y1115945D01*
Y1553143D01*
X3638767Y1561336D01*
X3634125Y1568283D01*
X3494867Y1707542D01*
Y1726364D01*
X3500362Y1728640D01*
X3513724Y1742002D01*
X3517787Y1751811D01*
X3532689Y1754870D01*
X3816757Y1470802D01*
Y1373933D01*
X3804731Y1361907D01*
X3797500Y1344448D01*
Y1325552D01*
X3804731Y1308093D01*
X3818093Y1294731D01*
X3835552Y1287500D01*
X3854448D01*
X3871907Y1294731D01*
X3885269Y1308093D01*
X3892500Y1325552D01*
Y1344448D01*
X3885269Y1361907D01*
X3873243Y1373933D01*
Y1482500D01*
X3871093Y1493308D01*
X3864971Y1502471D01*
X3864970Y1502471D01*
X3510000Y1857442D01*
Y1874448D01*
X3502769Y1891907D01*
X3489407Y1905269D01*
X3471948Y1912500D01*
D02*
G37*
G36*
X4247410Y1322300D02*
X4202700D01*
Y1277590D01*
X4222798Y1285915D01*
X4239085Y1302202D01*
X4247410Y1322300D01*
D02*
G37*
G36*
X4177300D02*
X4132590D01*
X4140915Y1302202D01*
X4157202Y1285915D01*
X4177300Y1277590D01*
Y1322300D01*
D02*
G37*
G36*
X3465000Y1180490D02*
X1165000D01*
X1155246Y1178549D01*
X1146976Y1173024D01*
X938365Y964413D01*
X936948Y965000D01*
X918052D01*
X900593Y957768D01*
X887231Y944407D01*
X880000Y926948D01*
Y908052D01*
X887231Y890593D01*
X900593Y877231D01*
X918052Y870000D01*
X936948D01*
X954407Y877231D01*
X967769Y890593D01*
X975000Y908052D01*
Y926948D01*
X974413Y928365D01*
X1175558Y1129510D01*
X1960741D01*
X1969085Y1116810D01*
X1965000Y1106948D01*
Y1088052D01*
X1972231Y1070593D01*
X1985593Y1057231D01*
X1986681Y1056781D01*
Y935556D01*
X1976778Y931454D01*
X1963416Y918092D01*
X1956185Y900633D01*
Y881737D01*
X1963416Y864278D01*
X1976778Y850917D01*
X1994237Y843685D01*
X2013133D01*
X2030592Y850917D01*
X2043954Y864278D01*
X2051185Y881737D01*
Y900633D01*
X2043954Y918092D01*
X2030592Y931454D01*
X2029504Y931904D01*
Y1053129D01*
X2039407Y1057231D01*
X2052769Y1070593D01*
X2060000Y1088052D01*
Y1106948D01*
X2055915Y1116810D01*
X2064259Y1129510D01*
X3454442D01*
X3545010Y1038942D01*
Y959500D01*
X3546951Y949745D01*
X3552476Y941476D01*
X3605587Y888365D01*
X3605000Y886948D01*
Y868052D01*
X3612231Y850593D01*
X3625593Y837231D01*
X3643052Y830000D01*
X3661948D01*
X3679407Y837231D01*
X3692769Y850593D01*
X3700000Y868052D01*
Y886948D01*
X3692769Y904407D01*
X3679407Y917769D01*
X3661948Y925000D01*
X3643052D01*
X3641635Y924413D01*
X3595990Y970058D01*
Y1049500D01*
X3594049Y1059254D01*
X3588524Y1067524D01*
X3483024Y1173024D01*
X3474755Y1178549D01*
X3465000Y1180490D01*
D02*
G37*
G36*
X2465200Y859910D02*
Y815200D01*
X2509910D01*
X2501585Y835298D01*
X2485298Y851585D01*
X2465200Y859910D01*
D02*
G37*
G36*
X2439800D02*
X2419702Y851585D01*
X2403415Y835298D01*
X2395090Y815200D01*
X2439800D01*
Y859910D01*
D02*
G37*
G36*
X2509910Y789800D02*
X2465200D01*
Y745090D01*
X2485298Y753415D01*
X2501585Y769702D01*
X2509910Y789800D01*
D02*
G37*
G36*
X2439800D02*
X2395090D01*
X2403415Y769702D01*
X2419702Y753415D01*
X2439800Y745090D01*
Y789800D01*
D02*
G37*
G36*
X1896948Y937500D02*
X1878052D01*
X1860593Y930269D01*
X1847231Y916907D01*
X1840000Y899448D01*
Y880552D01*
X1847231Y863093D01*
X1860593Y849731D01*
X1866088Y847455D01*
Y715000D01*
X1867718Y706806D01*
X1871088Y701763D01*
Y615000D01*
X1872718Y606806D01*
X1877360Y599860D01*
X1927360Y549860D01*
X1934306Y545218D01*
X1942500Y543588D01*
X3047500D01*
X3055694Y545218D01*
X3062640Y549860D01*
X3245057Y732276D01*
X3250552Y730000D01*
X3269448D01*
X3286907Y737231D01*
X3300269Y750593D01*
X3307500Y768052D01*
Y786948D01*
X3300269Y804407D01*
X3286907Y817769D01*
X3269448Y825000D01*
X3250552D01*
X3233093Y817769D01*
X3219731Y804407D01*
X3212500Y786948D01*
Y768052D01*
X3214776Y762557D01*
X3038631Y586411D01*
X2488471D01*
X2485944Y599111D01*
X2490298Y600915D01*
X2506585Y617202D01*
X2514910Y637300D01*
X2400090D01*
X2408415Y617202D01*
X2424702Y600915D01*
X2429056Y599111D01*
X2426530Y586411D01*
X1951369D01*
X1913911Y623869D01*
Y710000D01*
X1912281Y718194D01*
X1908911Y723238D01*
Y847455D01*
X1914407Y849731D01*
X1927769Y863093D01*
X1935000Y880552D01*
Y899448D01*
X1927769Y916907D01*
X1914407Y930269D01*
X1896948Y937500D01*
D02*
G37*
G36*
X2470200Y707410D02*
Y662700D01*
X2514910D01*
X2506585Y682798D01*
X2490298Y699085D01*
X2470200Y707410D01*
D02*
G37*
G36*
X2444800D02*
X2424702Y699085D01*
X2408415Y682798D01*
X2400090Y662700D01*
X2444800D01*
Y707410D01*
D02*
G37*
G36*
X3281948Y692500D02*
X3263052D01*
X3245593Y685269D01*
X3232231Y671907D01*
X3225000Y654448D01*
Y635552D01*
X3232231Y618093D01*
X3245593Y604731D01*
X3251088Y602455D01*
Y534764D01*
X3034222Y317897D01*
X2971032D01*
X2965772Y330597D01*
X2970269Y335094D01*
X2977500Y352552D01*
Y371449D01*
X2970269Y388907D01*
X2956907Y402269D01*
X2939448Y409500D01*
X2920552D01*
X2915056Y407224D01*
X2842640Y479640D01*
X2835694Y484281D01*
X2827500Y485911D01*
X2768863D01*
X1552170Y506408D01*
X1551989Y506376D01*
X1551809Y506411D01*
X1542000D01*
X1533806Y504782D01*
X1526860Y500141D01*
X1523345Y496626D01*
X1468568Y441848D01*
X1263926Y237206D01*
X1250682Y244852D01*
X1226841Y251240D01*
X1202159D01*
X1178318Y244852D01*
X1156942Y232511D01*
X1139489Y215058D01*
X1127148Y193682D01*
X1120760Y169841D01*
Y145159D01*
X1127148Y121318D01*
X1139489Y99942D01*
X1156942Y82489D01*
X1178318Y70148D01*
X1202159Y63760D01*
X1226841D01*
X1250682Y70148D01*
X1272058Y82489D01*
X1289511Y99942D01*
X1301852Y121318D01*
X1308240Y145159D01*
Y169841D01*
X1301852Y193682D01*
X1294206Y206926D01*
X1498848Y411568D01*
X1550869Y463589D01*
X1551629D01*
X1684281Y461354D01*
X1687689Y451102D01*
X1688078Y448588D01*
X1688075Y448584D01*
X1687640Y448293D01*
X1685391Y446045D01*
X1684900Y445309D01*
X1684207Y444759D01*
X1511305Y241028D01*
X1504682Y244852D01*
X1480841Y251240D01*
X1456159D01*
X1432318Y244852D01*
X1410942Y232511D01*
X1393489Y215058D01*
X1381148Y193682D01*
X1374760Y169841D01*
Y145159D01*
X1381148Y121318D01*
X1393489Y99942D01*
X1410942Y82489D01*
X1432318Y70148D01*
X1456159Y63760D01*
X1480841D01*
X1504682Y70148D01*
X1526058Y82489D01*
X1543511Y99942D01*
X1555852Y121318D01*
X1562240Y145159D01*
Y169841D01*
X1555852Y193682D01*
X1544288Y213712D01*
X1669908Y361730D01*
X1684609Y359425D01*
X1687231Y353093D01*
X1700593Y339731D01*
X1708789Y336337D01*
X1709933Y318115D01*
Y317713D01*
X1707360Y315140D01*
X1702718Y308193D01*
X1701089Y299999D01*
Y248810D01*
X1686318Y244852D01*
X1664942Y232511D01*
X1647489Y215058D01*
X1635148Y193682D01*
X1628760Y169841D01*
Y145159D01*
X1635148Y121318D01*
X1647489Y99942D01*
X1664942Y82489D01*
X1686318Y70148D01*
X1710159Y63760D01*
X1734841D01*
X1758682Y70148D01*
X1780058Y82489D01*
X1797511Y99942D01*
X1809852Y121318D01*
X1816240Y145159D01*
Y169841D01*
X1809852Y193682D01*
X1797511Y215058D01*
X1780058Y232511D01*
X1758682Y244852D01*
X1743911Y248810D01*
Y291130D01*
X1746484Y293704D01*
X1751126Y300650D01*
X1752756Y308844D01*
Y318785D01*
X1752623Y319453D01*
X1752714Y320127D01*
X1751557Y338551D01*
X1754407Y339731D01*
X1767769Y353093D01*
X1775000Y370552D01*
Y389448D01*
X1769226Y403388D01*
X1775180Y416089D01*
X2768631D01*
X2903374Y281345D01*
X2910321Y276704D01*
X2918515Y275074D01*
X3043090D01*
X3051284Y276704D01*
X3058231Y281345D01*
X3287640Y510755D01*
X3292281Y517701D01*
X3293911Y525895D01*
Y602455D01*
X3299407Y604731D01*
X3312769Y618093D01*
X3320000Y635552D01*
Y654448D01*
X3312769Y671907D01*
X3299407Y685269D01*
X3281948Y692500D01*
D02*
G37*
G36*
X5798841Y251240D02*
X5774159D01*
X5750318Y244852D01*
X5728942Y232511D01*
X5711489Y215058D01*
X5699148Y193682D01*
X5692760Y169841D01*
Y145159D01*
X5699148Y121318D01*
X5711489Y99942D01*
X5728942Y82489D01*
X5750318Y70148D01*
X5774159Y63760D01*
X5798841D01*
X5822682Y70148D01*
X5844058Y82489D01*
X5861511Y99942D01*
X5873852Y121318D01*
X5880240Y145159D01*
Y169841D01*
X5873852Y193682D01*
X5861511Y215058D01*
X5844058Y232511D01*
X5822682Y244852D01*
X5798841Y251240D01*
D02*
G37*
G36*
X5544841D02*
X5520159D01*
X5496318Y244852D01*
X5474942Y232511D01*
X5457489Y215058D01*
X5445148Y193682D01*
X5438760Y169841D01*
Y145159D01*
X5445148Y121318D01*
X5457489Y99942D01*
X5474942Y82489D01*
X5496318Y70148D01*
X5520159Y63760D01*
X5544841D01*
X5568682Y70148D01*
X5590058Y82489D01*
X5607511Y99942D01*
X5619852Y121318D01*
X5626240Y145159D01*
Y169841D01*
X5619852Y193682D01*
X5607511Y215058D01*
X5590058Y232511D01*
X5568682Y244852D01*
X5544841Y251240D01*
D02*
G37*
G36*
X3659448Y767500D02*
X3640552D01*
X3623093Y760269D01*
X3609731Y746907D01*
X3602500Y729448D01*
Y710552D01*
X3609731Y693093D01*
X3623093Y679731D01*
X3640552Y672500D01*
X3659448D01*
X3676907Y679731D01*
X3690269Y693093D01*
X3692545Y698589D01*
X3946138D01*
X3947367Y697360D01*
X3954313Y692718D01*
X3962507Y691089D01*
X4460631D01*
X4944794Y206926D01*
X4937148Y193682D01*
X4930760Y169841D01*
Y145159D01*
X4937148Y121318D01*
X4949489Y99942D01*
X4966942Y82489D01*
X4988318Y70148D01*
X5012159Y63760D01*
X5036841D01*
X5060682Y70148D01*
X5082058Y82489D01*
X5099511Y99942D01*
X5111852Y121318D01*
X5118240Y145159D01*
Y169841D01*
X5111852Y193682D01*
X5099511Y215058D01*
X5082058Y232511D01*
X5060682Y244852D01*
X5036841Y251240D01*
X5012159D01*
X4988318Y244852D01*
X4975074Y237206D01*
X4484640Y727640D01*
X4477694Y732281D01*
X4469500Y733911D01*
X3971376D01*
X3970147Y735140D01*
X3963200Y739782D01*
X3955007Y741412D01*
X3692545D01*
X3690269Y746907D01*
X3676907Y760269D01*
X3659448Y767500D01*
D02*
G37*
G36*
X4782841Y251240D02*
X4758159D01*
X4734318Y244852D01*
X4712942Y232511D01*
X4695489Y215058D01*
X4683148Y193682D01*
X4676760Y169841D01*
Y145159D01*
X4683148Y121318D01*
X4695489Y99942D01*
X4712942Y82489D01*
X4734318Y70148D01*
X4758159Y63760D01*
X4782841D01*
X4806682Y70148D01*
X4828058Y82489D01*
X4845511Y99942D01*
X4857852Y121318D01*
X4864240Y145159D01*
Y169841D01*
X4857852Y193682D01*
X4845511Y215058D01*
X4828058Y232511D01*
X4806682Y244852D01*
X4782841Y251240D01*
D02*
G37*
G36*
X4528841D02*
X4504159D01*
X4480318Y244852D01*
X4458942Y232511D01*
X4441489Y215058D01*
X4429148Y193682D01*
X4422760Y169841D01*
Y145159D01*
X4429148Y121318D01*
X4441489Y99942D01*
X4458942Y82489D01*
X4480318Y70148D01*
X4504159Y63760D01*
X4528841D01*
X4552682Y70148D01*
X4574058Y82489D01*
X4591511Y99942D01*
X4603852Y121318D01*
X4610240Y145159D01*
Y169841D01*
X4603852Y193682D01*
X4591511Y215058D01*
X4574058Y232511D01*
X4552682Y244852D01*
X4528841Y251240D01*
D02*
G37*
G36*
X4274841D02*
X4250159D01*
X4226318Y244852D01*
X4204942Y232511D01*
X4187489Y215058D01*
X4175148Y193682D01*
X4168760Y169841D01*
Y145159D01*
X4175148Y121318D01*
X4187489Y99942D01*
X4204942Y82489D01*
X4226318Y70148D01*
X4250159Y63760D01*
X4274841D01*
X4298682Y70148D01*
X4320058Y82489D01*
X4337511Y99942D01*
X4349852Y121318D01*
X4356240Y145159D01*
Y169841D01*
X4349852Y193682D01*
X4337511Y215058D01*
X4320058Y232511D01*
X4298682Y244852D01*
X4274841Y251240D01*
D02*
G37*
G36*
X4020841D02*
X3996159D01*
X3972318Y244852D01*
X3950942Y232511D01*
X3933489Y215058D01*
X3921148Y193682D01*
X3914760Y169841D01*
Y145159D01*
X3921148Y121318D01*
X3933489Y99942D01*
X3950942Y82489D01*
X3972318Y70148D01*
X3996159Y63760D01*
X4020841D01*
X4044682Y70148D01*
X4066058Y82489D01*
X4083511Y99942D01*
X4095852Y121318D01*
X4102240Y145159D01*
Y169841D01*
X4095852Y193682D01*
X4083511Y215058D01*
X4066058Y232511D01*
X4044682Y244852D01*
X4020841Y251240D01*
D02*
G37*
G36*
X3766841D02*
X3742159D01*
X3718318Y244852D01*
X3696942Y232511D01*
X3679489Y215058D01*
X3667148Y193682D01*
X3660760Y169841D01*
Y145159D01*
X3667148Y121318D01*
X3679489Y99942D01*
X3696942Y82489D01*
X3718318Y70148D01*
X3742159Y63760D01*
X3766841D01*
X3790682Y70148D01*
X3812058Y82489D01*
X3829511Y99942D01*
X3841852Y121318D01*
X3848240Y145159D01*
Y169841D01*
X3841852Y193682D01*
X3829511Y215058D01*
X3812058Y232511D01*
X3790682Y244852D01*
X3766841Y251240D01*
D02*
G37*
G36*
X3512841D02*
X3488159D01*
X3464318Y244852D01*
X3442942Y232511D01*
X3425489Y215058D01*
X3413148Y193682D01*
X3406760Y169841D01*
Y145159D01*
X3413148Y121318D01*
X3425489Y99942D01*
X3442942Y82489D01*
X3464318Y70148D01*
X3488159Y63760D01*
X3512841D01*
X3536682Y70148D01*
X3558058Y82489D01*
X3575511Y99942D01*
X3587852Y121318D01*
X3594240Y145159D01*
Y169841D01*
X3587852Y193682D01*
X3575511Y215058D01*
X3558058Y232511D01*
X3536682Y244852D01*
X3512841Y251240D01*
D02*
G37*
G36*
X3258841D02*
X3234159D01*
X3210318Y244852D01*
X3188942Y232511D01*
X3171489Y215058D01*
X3159148Y193682D01*
X3152760Y169841D01*
Y145159D01*
X3159148Y121318D01*
X3171489Y99942D01*
X3188942Y82489D01*
X3210318Y70148D01*
X3234159Y63760D01*
X3258841D01*
X3282682Y70148D01*
X3304058Y82489D01*
X3321511Y99942D01*
X3333852Y121318D01*
X3340240Y145159D01*
Y169841D01*
X3333852Y193682D01*
X3321511Y215058D01*
X3304058Y232511D01*
X3282682Y244852D01*
X3258841Y251240D01*
D02*
G37*
G36*
X3004841D02*
X2980159D01*
X2956318Y244852D01*
X2934942Y232511D01*
X2917489Y215058D01*
X2905148Y193682D01*
X2898760Y169841D01*
Y145159D01*
X2905148Y121318D01*
X2917489Y99942D01*
X2934942Y82489D01*
X2956318Y70148D01*
X2980159Y63760D01*
X3004841D01*
X3028682Y70148D01*
X3050058Y82489D01*
X3067511Y99942D01*
X3079852Y121318D01*
X3086240Y145159D01*
Y169841D01*
X3079852Y193682D01*
X3067511Y215058D01*
X3050058Y232511D01*
X3028682Y244852D01*
X3004841Y251240D01*
D02*
G37*
G36*
X2750841D02*
X2726159D01*
X2702318Y244852D01*
X2680942Y232511D01*
X2663489Y215058D01*
X2651148Y193682D01*
X2644760Y169841D01*
Y145159D01*
X2651148Y121318D01*
X2663489Y99942D01*
X2680942Y82489D01*
X2702318Y70148D01*
X2726159Y63760D01*
X2750841D01*
X2774682Y70148D01*
X2796058Y82489D01*
X2813511Y99942D01*
X2825852Y121318D01*
X2832240Y145159D01*
Y169841D01*
X2825852Y193682D01*
X2813511Y215058D01*
X2796058Y232511D01*
X2774682Y244852D01*
X2750841Y251240D01*
D02*
G37*
G36*
X2496841D02*
X2472159D01*
X2448318Y244852D01*
X2426942Y232511D01*
X2409489Y215058D01*
X2397148Y193682D01*
X2390760Y169841D01*
Y145159D01*
X2397148Y121318D01*
X2409489Y99942D01*
X2426942Y82489D01*
X2448318Y70148D01*
X2472159Y63760D01*
X2496841D01*
X2520682Y70148D01*
X2542058Y82489D01*
X2559511Y99942D01*
X2571852Y121318D01*
X2578240Y145159D01*
Y169841D01*
X2571852Y193682D01*
X2559511Y215058D01*
X2542058Y232511D01*
X2520682Y244852D01*
X2496841Y251240D01*
D02*
G37*
G36*
X2242841D02*
X2218159D01*
X2194318Y244852D01*
X2172942Y232511D01*
X2155489Y215058D01*
X2143148Y193682D01*
X2136760Y169841D01*
Y145159D01*
X2143148Y121318D01*
X2155489Y99942D01*
X2172942Y82489D01*
X2194318Y70148D01*
X2218159Y63760D01*
X2242841D01*
X2266682Y70148D01*
X2288058Y82489D01*
X2305511Y99942D01*
X2317852Y121318D01*
X2324240Y145159D01*
Y169841D01*
X2317852Y193682D01*
X2305511Y215058D01*
X2288058Y232511D01*
X2266682Y244852D01*
X2242841Y251240D01*
D02*
G37*
G36*
X1988841D02*
X1964159D01*
X1940318Y244852D01*
X1918942Y232511D01*
X1901489Y215058D01*
X1889148Y193682D01*
X1882760Y169841D01*
Y145159D01*
X1889148Y121318D01*
X1901489Y99942D01*
X1918942Y82489D01*
X1940318Y70148D01*
X1964159Y63760D01*
X1988841D01*
X2012682Y70148D01*
X2034058Y82489D01*
X2051511Y99942D01*
X2063852Y121318D01*
X2070240Y145159D01*
Y169841D01*
X2063852Y193682D01*
X2051511Y215058D01*
X2034058Y232511D01*
X2012682Y244852D01*
X1988841Y251240D01*
D02*
G37*
G36*
X972841D02*
X948159D01*
X924318Y244852D01*
X902942Y232511D01*
X885489Y215058D01*
X873148Y193682D01*
X866760Y169841D01*
Y145159D01*
X873148Y121318D01*
X885489Y99942D01*
X902942Y82489D01*
X924318Y70148D01*
X948159Y63760D01*
X972841D01*
X996682Y70148D01*
X1018058Y82489D01*
X1035511Y99942D01*
X1047852Y121318D01*
X1054240Y145159D01*
Y169841D01*
X1047852Y193682D01*
X1035511Y215058D01*
X1018058Y232511D01*
X996682Y244852D01*
X972841Y251240D01*
D02*
G37*
%LPD*%
D10*
X1892500Y615000D02*
X1942500Y565000D01*
X1892500Y615000D02*
Y710000D01*
X1887500Y715000D02*
X1892500Y710000D01*
X1887500Y715000D02*
Y890000D01*
X1942500Y565000D02*
X3047500D01*
X3260000Y777500D01*
X4200000Y1215000D02*
X4214342D01*
X4219342Y1220000D01*
X3618985Y1101015D02*
X3655000Y1065000D01*
X3618985Y1101015D02*
Y1553143D01*
X5937285Y2414102D02*
X6076445Y2553262D01*
X2985000Y1565500D02*
X3833601Y2414102D01*
X5937285D01*
X5278500Y157500D02*
Y196867D01*
X4373934Y1716063D02*
X4390518Y1222057D01*
X4394922Y1085085D02*
X4394956Y1085043D01*
X5278499Y196867D02*
X5278500Y157500D01*
X5271470Y203897D02*
X5278499Y196867D01*
X4394956Y1085043D02*
X5244095Y235905D01*
X5271470Y203897D01*
X4390518Y1222057D02*
X4394922Y1085085D01*
X4219342Y1220000D02*
X4280390D01*
X4290332Y1220000D02*
X4336890Y1224980D01*
X4280390Y1220000D02*
X4290332Y1220000D01*
X4370585Y1719414D02*
X4373934Y1716063D01*
X3936200Y2153800D02*
X4370585Y1719414D01*
X2496400Y1499522D02*
X2504139Y1507261D01*
X2985000Y1520000D02*
Y1565500D01*
X2504139Y1507261D02*
X2972261D01*
X2985000Y1520000D01*
X6076445Y2577668D02*
X6086586Y2587809D01*
X6076445Y2553262D02*
Y2577668D01*
X3667644Y2153800D02*
X3936200D01*
X5278500Y157500D02*
Y196867D01*
X4610000Y939529D02*
Y952500D01*
X5189529Y360000D02*
X5838000D01*
X4610000Y939529D02*
X5189529Y360000D01*
X3473455Y1698673D02*
X3493152Y1678977D01*
X3473455Y1698673D02*
Y1768909D01*
X3272500Y525895D02*
Y645000D01*
X3043090Y296485D02*
X3272500Y525895D01*
X2008093Y895593D02*
Y1093093D01*
X2012500Y1097500D01*
X2003685Y891185D02*
X2008093Y895593D01*
X3650000Y720000D02*
X3955007D01*
X3962507Y712500D01*
X4469500D01*
X1714894Y437500D02*
X2777500D01*
X2918515Y296485D01*
X3043090D01*
X2827500Y464500D02*
X2930000Y362000D01*
X2768684Y464500D02*
X2827500D01*
X1551809Y485000D02*
X2768684Y464500D01*
X1468500Y157500D02*
X1700532Y430905D01*
X1702780Y433153D01*
X1714894Y437500D01*
X1727500Y380000D02*
X1731344Y318785D01*
Y308844D02*
Y318785D01*
X1722500Y299999D02*
X1731344Y308844D01*
X1542000Y485000D02*
X1551809D01*
X1722500Y157500D02*
Y299999D01*
X1538485Y481485D02*
X1542000Y485000D01*
X1483708Y426708D02*
X1538485Y481485D01*
X4469500Y712500D02*
X5024500Y157500D01*
X3493152Y1678977D02*
X3618985Y1553143D01*
X1214500Y157500D02*
X1483708Y426708D01*
X5838000Y360000D02*
X6040500Y157500D01*
D11*
X3570500Y959500D02*
Y1049500D01*
X3465000Y1155000D02*
X3570500Y1049500D01*
X6322798Y2727500D02*
X6613000Y2437298D01*
Y142500D02*
Y2437298D01*
X2214185Y1655000D02*
X2832500D01*
X1800280Y2068904D02*
X2214185Y1655000D01*
X2832500D02*
X2982500Y1805000D01*
X953596Y2068904D02*
X1800280D01*
X6302500Y2727500D02*
X6322798D01*
X1165000Y1155000D02*
X3465000D01*
X927500Y917500D02*
X1165000Y1155000D01*
X3570500Y959500D02*
X3652500Y877500D01*
X905000Y2117500D02*
X953596Y2068904D01*
D37*
X5972464Y2581078D02*
G03*
X5989012Y2597635I-7671J24215D01*
G01*
X1265559Y2777560D02*
G03*
X1265557Y2777561I-17962J-17960D01*
G01*
X5192502Y2340002D02*
X6115000D01*
X4797500Y2040317D02*
X5137584Y2380402D01*
X4977500Y2125000D02*
X5192502Y2340002D01*
X5137584Y2380402D02*
X5975402D01*
X6284032Y2689032D01*
X1420001Y2502499D02*
X2204923Y1717577D01*
X2677577D02*
X2685000Y1725000D01*
X2752500D01*
X2204923Y1717577D02*
X2677577D01*
X2982577Y1657577D02*
Y1707713D01*
X2975000Y1650000D02*
X2982577Y1657577D01*
Y1707713D02*
X3769864Y2495000D01*
X1420001Y2502499D02*
Y2545321D01*
X1400000Y1997500D02*
X1797500D01*
X2357700Y1437300D01*
X1394923Y2570398D02*
X1420001Y2545321D01*
X1394923Y2570398D02*
Y2580000D01*
X5886386Y2495000D02*
X5972464Y2581077D01*
X3769864Y2495000D02*
X5886386D01*
X6284032Y2723987D02*
X6287544Y2727500D01*
X6302500D01*
X6284032Y2689032D02*
Y2723987D01*
X2357700Y1437300D02*
X3369800D01*
X5972464Y2581077D02*
X5972464Y2581078D01*
X5989011Y2597635D02*
X6048500Y2785000D01*
X3369800Y1437300D02*
X3487500Y1555000D01*
X3462500Y1865000D02*
X3845000Y1482500D01*
X4797500Y1695000D02*
Y2040317D01*
X6302500Y2727500D02*
Y2785000D01*
X4977500Y1695000D02*
Y2125000D01*
Y1695000D02*
X4984080Y1688420D01*
X2973750Y1933750D02*
Y2108750D01*
X2967500Y2115000D02*
X2973750Y2108750D01*
Y1933750D02*
X2980000Y1927500D01*
X3845000Y1335000D02*
Y1482500D01*
X1222500Y2785000D02*
X1258118D01*
X1265558Y2777559D02*
X1271042Y2772076D01*
X1258118Y2785000D02*
X1265557Y2777561D01*
D38*
X714500Y2785000D02*
D03*
X968500D02*
D03*
X1222500D02*
D03*
X1476500D02*
D03*
X1730500D02*
D03*
X1984500D02*
D03*
X2238500D02*
D03*
X2492500D02*
D03*
X2746500D02*
D03*
X3000500D02*
D03*
X3254500D02*
D03*
X3508500D02*
D03*
X3762500D02*
D03*
X4016500D02*
D03*
X4270500D02*
D03*
X4524500D02*
D03*
X4778500D02*
D03*
X5032500D02*
D03*
X5286500D02*
D03*
X5540500D02*
D03*
X5794500D02*
D03*
X6048500D02*
D03*
X6302500D02*
D03*
X6556500D02*
D03*
X706500Y157500D02*
D03*
X960500D02*
D03*
X1214500D02*
D03*
X1468500D02*
D03*
X1722500D02*
D03*
X1976500D02*
D03*
X2230500D02*
D03*
X2484500D02*
D03*
X2738500D02*
D03*
X2992500D02*
D03*
X3246500D02*
D03*
X3500500D02*
D03*
X3754500D02*
D03*
X4008500D02*
D03*
X4262500D02*
D03*
X4516500D02*
D03*
X4770500D02*
D03*
X5024500D02*
D03*
X5278500D02*
D03*
X5532500D02*
D03*
X5786500D02*
D03*
X6040500D02*
D03*
X6294500D02*
D03*
X6548500D02*
D03*
D39*
X182500Y2484500D02*
D03*
Y1620500D02*
D03*
X187500Y1374000D02*
D03*
Y510000D02*
D03*
D40*
X582500Y2484500D02*
D03*
Y1620500D02*
D03*
X587500Y1374000D02*
D03*
Y510000D02*
D03*
D41*
X3655000Y1065000D02*
D03*
X6115000Y2340002D02*
D03*
X2452500Y802500D02*
D03*
X2457500Y650000D02*
D03*
X4336890Y1224980D02*
D03*
X4200000Y1215000D02*
D03*
X2980000Y1515000D02*
D03*
X2975000Y1650000D02*
D03*
X2752500Y1725000D02*
D03*
X1400000Y1997500D02*
D03*
X3667644Y2153800D02*
D03*
X6086586Y2587809D02*
D03*
X2496400Y1499522D02*
D03*
X3462500Y1865000D02*
D03*
X4610000Y952500D02*
D03*
X4984080Y1688420D02*
D03*
X4797500Y1695000D02*
D03*
X2967500Y2115000D02*
D03*
X2982500Y1805000D02*
D03*
X2980000Y1927500D02*
D03*
X3473455Y1768909D02*
D03*
X3487500Y1555000D02*
D03*
X3845000Y1335000D02*
D03*
X3272500Y645000D02*
D03*
X1887500Y890000D02*
D03*
X2012500Y1097500D02*
D03*
X3260000Y777500D02*
D03*
X3650000Y720000D02*
D03*
X3652500Y877500D02*
D03*
X2930000Y362000D02*
D03*
X1727500Y380000D02*
D03*
X3102155Y1372142D02*
D03*
X2003685Y891185D02*
D03*
X1394923Y2580000D02*
D03*
X4190000Y1335000D02*
D03*
X927500Y917500D02*
D03*
X905000Y2117500D02*
D03*
%TF.MD5,9bb02c5ac1794494a2ec8307a0ee58f5*%
M02*
