%FSTAX23Y23*%
%MOIN*%
%SFA1B1*%

%IPPOS*%
%ADD10C,0.004724*%
%ADD11C,0.007874*%
%ADD37C,0.010000*%
%ADD38C,0.062000*%
%ADD39O,0.086614X0.039370*%
%ADD40O,0.070866X0.039370*%
%ADD41C,0.025591*%
%LNesp32_copper_signal_bot-1*%
%LPD*%
G36*
X02635Y00891D02*
X02633Y0089D01*
X02631Y00885*
Y00279*
X02633Y00275*
X02637Y00273*
X02637Y00009*
X02634Y00005*
X0001*
X00008*
X00005Y00007*
X00004Y00008*
X00005Y00012*
Y0115*
X00007Y01154*
X00012*
X02634*
X02635Y00891*
G37*
%LNesp32_copper_signal_bot-2*%
%LPC*%
G36*
X02286Y01133D02*
X02276D01*
X02267Y0113*
X02258Y01125*
X02251Y01119*
X02246Y0111*
X02244Y01101*
Y01091*
X02246Y01082*
X02251Y01073*
X02258Y01066*
X02267Y01062*
X02276Y01059*
X02286*
X02295Y01062*
X02303Y01066*
X0231Y01073*
X02315Y01082*
X02318Y01091*
Y01101*
X02315Y0111*
X0231Y01119*
X02303Y01125*
X02295Y0113*
X02286Y01133*
G37*
G36*
X02186D02*
X02176D01*
X02167Y0113*
X02158Y01125*
X02151Y01119*
X02146Y0111*
X02144Y01101*
Y01091*
X02146Y01082*
X02151Y01073*
X02158Y01066*
X02167Y01062*
X02176Y01059*
X02186*
X02195Y01062*
X02203Y01066*
X0221Y01073*
X02215Y01082*
X02218Y01091*
Y01101*
X02215Y0111*
X0221Y01119*
X02203Y01125*
X02195Y0113*
X02186Y01133*
G37*
G36*
X02086D02*
X02076D01*
X02067Y0113*
X02058Y01125*
X02051Y01119*
X02046Y0111*
X02044Y01101*
Y01091*
X02046Y01082*
X02051Y01073*
X02058Y01066*
X02067Y01062*
X02076Y01059*
X02086*
X02095Y01062*
X02103Y01066*
X0211Y01073*
X02115Y01082*
X02118Y01091*
Y01101*
X02115Y0111*
X0211Y01119*
X02103Y01125*
X02095Y0113*
X02086Y01133*
G37*
G36*
X01986D02*
X01976D01*
X01967Y0113*
X01958Y01125*
X01951Y01119*
X01946Y0111*
X01944Y01101*
Y01091*
X01946Y01082*
X01951Y01073*
X01958Y01066*
X01967Y01062*
X01976Y01059*
X01986*
X01995Y01062*
X02003Y01066*
X0201Y01073*
X02015Y01082*
X02018Y01091*
Y01101*
X02015Y0111*
X0201Y01119*
X02003Y01125*
X01995Y0113*
X01986Y01133*
G37*
G36*
X01886D02*
X01876D01*
X01867Y0113*
X01858Y01125*
X01851Y01119*
X01846Y0111*
X01844Y01101*
Y01091*
X01846Y01082*
X01851Y01073*
X01858Y01066*
X01867Y01062*
X01876Y01059*
X01886*
X01895Y01062*
X01903Y01066*
X0191Y01073*
X01915Y01082*
X01918Y01091*
Y01101*
X01915Y0111*
X0191Y01119*
X01903Y01125*
X01895Y0113*
X01886Y01133*
G37*
G36*
X01786D02*
X01776D01*
X01767Y0113*
X01758Y01125*
X01751Y01119*
X01746Y0111*
X01744Y01101*
Y01091*
X01746Y01082*
X01751Y01073*
X01758Y01066*
X01767Y01062*
X01776Y01059*
X01786*
X01795Y01062*
X01803Y01066*
X0181Y01073*
X01815Y01082*
X01818Y01091*
Y01101*
X01815Y0111*
X0181Y01119*
X01803Y01125*
X01795Y0113*
X01786Y01133*
G37*
G36*
X01686D02*
X01676D01*
X01667Y0113*
X01658Y01125*
X01651Y01119*
X01646Y0111*
X01644Y01101*
Y01091*
X01646Y01082*
X01651Y01073*
X01658Y01066*
X01667Y01062*
X01676Y01059*
X01686*
X01695Y01062*
X01703Y01066*
X0171Y01073*
X01715Y01082*
X01718Y01091*
Y01101*
X01715Y0111*
X0171Y01119*
X01703Y01125*
X01695Y0113*
X01686Y01133*
G37*
G36*
X01586D02*
X01576D01*
X01567Y0113*
X01558Y01125*
X01551Y01119*
X01546Y0111*
X01544Y01101*
Y01091*
X01546Y01082*
X01551Y01073*
X01558Y01066*
X01567Y01062*
X01576Y01059*
X01586*
X01595Y01062*
X01603Y01066*
X0161Y01073*
X01615Y01082*
X01618Y01091*
Y01101*
X01615Y0111*
X0161Y01119*
X01603Y01125*
X01595Y0113*
X01586Y01133*
G37*
G36*
X01486D02*
X01476D01*
X01467Y0113*
X01458Y01125*
X01451Y01119*
X01446Y0111*
X01444Y01101*
Y01091*
X01446Y01082*
X01451Y01073*
X01458Y01066*
X01467Y01062*
X01476Y01059*
X01486*
X01495Y01062*
X01503Y01066*
X0151Y01073*
X01515Y01082*
X01518Y01091*
Y01101*
X01515Y0111*
X0151Y01119*
X01503Y01125*
X01495Y0113*
X01486Y01133*
G37*
G36*
X01386D02*
X01376D01*
X01367Y0113*
X01358Y01125*
X01351Y01119*
X01346Y0111*
X01344Y01101*
Y01091*
X01346Y01082*
X01351Y01073*
X01358Y01066*
X01367Y01062*
X01376Y01059*
X01386*
X01395Y01062*
X01403Y01066*
X0141Y01073*
X01415Y01082*
X01418Y01091*
Y01101*
X01415Y0111*
X0141Y01119*
X01403Y01125*
X01395Y0113*
X01386Y01133*
G37*
G36*
X01286D02*
X01276D01*
X01267Y0113*
X01258Y01125*
X01251Y01119*
X01246Y0111*
X01244Y01101*
Y01091*
X01246Y01082*
X01251Y01073*
X01258Y01066*
X01267Y01062*
X01276Y01059*
X01286*
X01295Y01062*
X01303Y01066*
X0131Y01073*
X01315Y01082*
X01318Y01091*
Y01101*
X01315Y0111*
X0131Y01119*
X01303Y01125*
X01295Y0113*
X01286Y01133*
G37*
G36*
X01186D02*
X01176D01*
X01167Y0113*
X01158Y01125*
X01151Y01119*
X01146Y0111*
X01144Y01101*
Y01091*
X01146Y01082*
X01151Y01073*
X01158Y01066*
X01167Y01062*
X01176Y01059*
X01186*
X01195Y01062*
X01203Y01066*
X0121Y01073*
X01215Y01082*
X01218Y01091*
Y01101*
X01215Y0111*
X0121Y01119*
X01203Y01125*
X01195Y0113*
X01186Y01133*
G37*
G36*
X01086D02*
X01076D01*
X01067Y0113*
X01058Y01125*
X01051Y01119*
X01046Y0111*
X01044Y01101*
Y01091*
X01046Y01082*
X01051Y01073*
X01058Y01066*
X01067Y01062*
X01076Y01059*
X01086*
X01095Y01062*
X01103Y01066*
X0111Y01073*
X01115Y01082*
X01118Y01091*
Y01101*
X01115Y0111*
X0111Y01119*
X01103Y01125*
X01095Y0113*
X01086Y01133*
G37*
G36*
X00986D02*
X00976D01*
X00967Y0113*
X00958Y01125*
X00951Y01119*
X00946Y0111*
X00944Y01101*
Y01091*
X00946Y01082*
X00951Y01073*
X00958Y01066*
X00967Y01062*
X00976Y01059*
X00986*
X00995Y01062*
X01003Y01066*
X0101Y01073*
X01015Y01082*
X01018Y01091*
Y01101*
X01015Y0111*
X0101Y01119*
X01003Y01125*
X00995Y0113*
X00986Y01133*
G37*
G36*
X00886D02*
X00876D01*
X00867Y0113*
X00858Y01125*
X00851Y01119*
X00846Y0111*
X00844Y01101*
Y01091*
X00846Y01082*
X00851Y01073*
X00858Y01066*
X00867Y01062*
X00876Y01059*
X00886*
X00895Y01062*
X00903Y01066*
X0091Y01073*
X00915Y01082*
X00918Y01091*
Y01101*
X00915Y0111*
X0091Y01119*
X00903Y01125*
X00895Y0113*
X00886Y01133*
G37*
G36*
X00786D02*
X00776D01*
X00767Y0113*
X00758Y01125*
X00751Y01119*
X00746Y0111*
X00744Y01101*
Y01091*
X00746Y01082*
X00751Y01073*
X00758Y01066*
X00767Y01062*
X00776Y01059*
X00786*
X00795Y01062*
X00803Y01066*
X0081Y01073*
X00815Y01082*
X00818Y01091*
Y01101*
X00815Y0111*
X0081Y01119*
X00803Y01125*
X00795Y0113*
X00786Y01133*
G37*
G36*
X00686D02*
X00676D01*
X00667Y0113*
X00658Y01125*
X00651Y01119*
X00646Y0111*
X00644Y01101*
Y01091*
X00646Y01082*
X00651Y01073*
X00658Y01066*
X00667Y01062*
X00676Y01059*
X00686*
X00695Y01062*
X00703Y01066*
X0071Y01073*
X00715Y01082*
X00718Y01091*
Y01101*
X00715Y0111*
X0071Y01119*
X00703Y01125*
X00695Y0113*
X00686Y01133*
G37*
G36*
X00586D02*
X00576D01*
X00567Y0113*
X00558Y01125*
X00551Y01119*
X00546Y0111*
X00544Y01101*
Y01091*
X00546Y01082*
X00551Y01073*
X00558Y01066*
X00567Y01062*
X00576Y01059*
X00586*
X00595Y01062*
X00603Y01066*
X0061Y01073*
X00615Y01082*
X00618Y01091*
Y01101*
X00615Y0111*
X0061Y01119*
X00603Y01125*
X00595Y0113*
X00586Y01133*
G37*
G36*
X00486D02*
X00476D01*
X00467Y0113*
X00458Y01125*
X00451Y01119*
X00446Y0111*
X00444Y01101*
Y01091*
X00446Y01082*
X00451Y01073*
X00458Y01066*
X00467Y01062*
X00476Y01059*
X00486*
X00495Y01062*
X00503Y01066*
X0051Y01073*
X00515Y01082*
X00518Y01091*
Y01101*
X00515Y0111*
X0051Y01119*
X00503Y01125*
X00495Y0113*
X00486Y01133*
G37*
G36*
X00286D02*
X00276D01*
X00267Y0113*
X00258Y01125*
X00251Y01119*
X00246Y0111*
X00244Y01101*
Y01091*
X00246Y01082*
X00251Y01073*
X00258Y01066*
X00267Y01062*
X00276Y01059*
X00286*
X00295Y01062*
X00303Y01066*
X0031Y01073*
X00315Y01082*
X00318Y01091*
Y01101*
X00315Y0111*
X0031Y01119*
X00303Y01125*
X00295Y0113*
X00286Y01133*
G37*
G36*
X02486D02*
X02476D01*
X02467Y0113*
X02458Y01125*
X02451Y01119*
X02446Y0111*
X02444Y01101*
Y01091*
X02446Y01082*
X02451Y01073*
X02458Y01066*
X02459Y01066*
X02459Y0106*
X02419Y01019*
X02414Y01021*
Y01022*
X02412Y01029*
X02406Y01034*
X024Y01037*
X02392*
X02385Y01034*
X0238Y01029*
X02377Y01022*
Y01015*
X0238Y01008*
X02381Y01006*
X02334Y00958*
X01509*
X01506Y00958*
X01503Y00956*
X01194Y00648*
X01189Y0065*
Y00653*
X01187Y0066*
X01185Y00661*
Y00667*
X01488Y00971*
X02317*
X02321Y00972*
X02325Y00974*
X02357Y01006*
X02363Y0101*
X02368Y01017*
X02368Y01019*
X02368Y01019*
X02381Y01059*
X02386*
X02395Y01062*
X02403Y01066*
X0241Y01073*
X02415Y01082*
X02418Y01091*
Y01101*
X02415Y0111*
X0241Y01119*
X02403Y01125*
X02395Y0113*
X02386Y01133*
X02376*
X02367Y0113*
X02358Y01125*
X02351Y01119*
X02346Y0111*
X02344Y01101*
Y01091*
X02346Y01082*
X02351Y01073*
X02358Y01066*
X0236Y01066*
X02348Y01031*
X02347Y01026*
X02347Y01026*
X02343Y01024*
X02343Y01024*
X02343*
X02343Y01023*
X02312Y00993*
X01484*
X01484*
X01479Y00992*
X01476Y0099*
X01476Y0099*
X01197Y00711*
X01192Y00713*
Y00714*
X0119Y00721*
X01184Y00726*
X01177Y00729*
X0117*
X01163Y00726*
X01158Y00721*
X01155Y00714*
Y00706*
X01155Y00706*
X01111Y00661*
X01099*
X01097Y00666*
X01099Y00668*
X01102Y00675*
Y00682*
X01099Y00689*
X01094Y00694*
X01087Y00697*
X01079*
X01073Y00694*
X01068Y0069*
X01057*
X01052Y00689*
X01049Y00687*
X00872*
X0057Y00989*
Y01002*
X00569Y01006*
X00566Y01009*
X00567Y01012*
Y01019*
X00565Y01026*
X00559Y01031*
X00552Y01034*
X00545*
X00538Y01031*
X00533Y01026*
X0053Y01019*
Y01012*
X00533Y01005*
X00538Y00999*
X00545Y00997*
X00547*
Y00985*
Y00985*
X00548Y0098*
X00551Y00977*
X00699Y00829*
X00697Y00824*
X00379*
X00374Y00829*
X00375Y00829*
Y00837*
X00372Y00844*
X00366Y00849*
X0036Y00852*
X00352*
X00345Y00849*
X0034Y00844*
X00337Y00837*
Y00829*
X0034Y00823*
X00345Y00817*
X00352Y00814*
X0036*
X0036Y00815*
X00368Y00807*
X00371Y00805*
X00375Y00804*
X00535*
X00537Y00799*
X00535Y00797*
X00532Y0079*
Y00782*
X00535Y00775*
X0054Y0077*
X00547Y00767*
X00554*
X00561Y0077*
X00566Y00775*
X00703*
X0092Y00558*
X00923Y00555*
X00928Y00554*
X00928*
X01197*
X012Y00549*
X01198Y00545*
X01243*
X01242Y00549*
X01245Y00554*
X01326*
X0133Y00555*
X01334Y00558*
X0137Y00593*
X01376*
X01383Y00596*
X01388Y00601*
X01391Y00608*
Y00615*
X01388Y00622*
X01383Y00628*
X01376Y0063*
X01369*
X01362Y00628*
X01357Y00622*
X01354Y00615*
Y00609*
X01322Y00576*
X01187*
X01185Y00581*
X01189Y00585*
X01191Y00592*
Y006*
X01189Y00607*
X01184Y00612*
X01186Y00616*
X0142Y00849*
X01425Y00847*
Y00844*
X01428Y00837*
X01433Y00832*
X0144Y00829*
X01447*
X01454Y00832*
X01459Y00837*
X0146Y00839*
X01546*
X01713Y00672*
X01719Y00502*
X01714Y00499*
X01711Y005*
X01703*
X01696Y00498*
X01691Y00492*
X01689Y00488*
X01688Y00488*
X01685*
X01669*
X01669Y00488*
X01664Y00494*
X01657Y00497*
X01649*
X01642Y00494*
X01637Y00488*
X01634Y00482*
Y00474*
X01637Y00467*
X01642Y00462*
X01649Y00459*
X01657*
X01664Y00462*
X01669Y00467*
X01671Y00471*
X01685*
X01689*
X01689Y00471*
X0169Y00471*
X01691Y00472*
X01691Y00471*
X01696Y00466*
X01703Y00463*
X01711*
X01715Y00465*
X0172Y00462*
X01721Y00426*
X01722Y00425*
X01722Y00424*
X01722Y00424*
X01722Y00423*
X01722Y00423*
X01722Y00423*
X01723Y00422*
X01723Y00421*
X01723Y00421*
X01724Y00421*
X01724Y00421*
X02054Y0009*
X02048Y00084*
X02043Y00076*
X02041Y00066*
Y00057*
X02043Y00047*
X02048Y00039*
X02055Y00032*
X02063Y00027*
X02073Y00025*
X02083*
X02092Y00027*
X021Y00032*
X02107Y00039*
X02112Y00047*
X02115Y00057*
Y00066*
X02112Y00076*
X02107Y00084*
X021Y00091*
X02092Y00096*
X02083Y00098*
X02073*
X02071Y00098*
X02071Y00098*
X0207Y00098*
X0207Y00098*
X0204Y00128*
X02043Y00133*
X02043Y00133*
X02294*
X02346Y00081*
X02343Y00076*
X02341Y00066*
Y00057*
X02343Y00047*
X02348Y00039*
X02355Y00032*
X02363Y00027*
X02373Y00025*
X02383*
X02392Y00027*
X024Y00032*
X02407Y00039*
X02412Y00047*
X02415Y00057*
Y00066*
X02412Y00076*
X02407Y00084*
X024Y00091*
X02392Y00096*
X02383Y00098*
X02373*
X02363Y00096*
X02358Y00093*
X02304Y00147*
X02301Y00149*
X02298Y0015*
X02046*
X01831Y00365*
X01833Y00371*
Y00378*
X0183Y00385*
X01825Y0039*
X01818Y00393*
X01811*
X01804Y0039*
X01799Y00385*
X01796Y00379*
X01791Y00377*
X01738Y0043*
X01736Y00481*
X01736Y00481*
X01736Y00481*
X0173Y00675*
X0173Y00677*
X01729Y00678*
X01729Y00678*
X01729Y00679*
X01728Y0068*
X01727Y00681*
X01726Y00682*
X01726Y00682*
X01726Y00682*
X01555Y00853*
X01552Y00855*
X01549Y00856*
X0146*
X01459Y00858*
X01454Y00863*
X01447Y00866*
X01444*
X01442Y00871*
X01512Y00942*
X02005*
X02007Y00937*
X0188Y00811*
X01878Y00807*
X01877Y00803*
Y00682*
X01872Y00677*
X0187Y00671*
Y00663*
X01872Y00656*
X01878Y00651*
X01885Y00648*
X01892*
X01899Y00651*
X01904Y00656*
X01907Y00663*
Y00671*
X01904Y00677*
X01899Y00682*
Y00798*
X01945Y00844*
X01949Y00841*
X01949Y0084*
X01948Y00836*
Y00836*
Y00677*
X01946Y00675*
X01943Y00668*
Y00661*
X01946Y00654*
X01951Y00648*
X01958Y00646*
X01965*
X01972Y00648*
X01978Y00654*
X0198Y00661*
Y00668*
X01978Y00675*
X01972Y0068*
X0197Y00681*
Y00832*
X02048Y0091*
X02392*
X02396Y00905*
X02403Y00902*
X02411*
X02418Y00905*
X02423Y0091*
X02426Y00917*
Y00924*
X02423Y00931*
X02418Y00937*
X02411Y00939*
X02403*
X02396Y00937*
X02392Y00932*
X02369*
X02368Y00936*
X02481Y0105*
X02484Y01054*
X02484Y01057*
X02488Y01058*
X0249Y01058*
X02593Y00955*
Y00101*
X02588Y00097*
X02583Y00098*
X02573*
X02563Y00096*
X02555Y00091*
X02548Y00084*
X02543Y00076*
X02541Y00066*
Y00057*
X02543Y00047*
X02548Y00039*
X02555Y00032*
X02563Y00027*
X02573Y00025*
X02583*
X02592Y00027*
X026Y00032*
X02607Y00039*
X02612Y00047*
X02615Y00057*
Y00066*
X02613Y00072*
Y00959*
X02612Y00963*
X0261Y00966*
X02507Y0107*
X0251Y01073*
X02515Y01082*
X02518Y01091*
Y01101*
X02515Y0111*
X0251Y01119*
X02503Y01125*
X02495Y0113*
X02486Y01133*
G37*
G36*
X01172Y00851D02*
X01164D01*
X01157Y00848*
X01152Y00843*
X01149Y00836*
Y00828*
X01152Y00822*
X01157Y00816*
X01159Y00816*
Y00771*
X01157Y00769*
X01154Y00762*
Y00755*
X01157Y00748*
X01162Y00743*
X01169Y0074*
X01176*
X01183Y00743*
X01189Y00748*
X01191Y00755*
Y00762*
X01189Y00769*
X01183Y00774*
X01181Y00775*
Y00819*
X01184Y00822*
X01187Y00828*
Y00836*
X01184Y00843*
X01178Y00848*
X01172Y00851*
G37*
G36*
X01654Y00548D02*
Y0053D01*
X01672*
X01668Y00538*
X01662Y00544*
X01654Y00548*
G37*
G36*
X01644D02*
X01636Y00544D01*
X0163Y00538*
X01627Y0053*
X01644*
Y00548*
G37*
G36*
X01243Y00535D02*
X01226D01*
Y00517*
X01234Y0052*
X0124Y00527*
X01243Y00535*
G37*
G36*
X01216D02*
X01198D01*
X01201Y00527*
X01208Y0052*
X01216Y00517*
Y00535*
G37*
G36*
X01366Y00752D02*
X01359D01*
X01352Y0075*
X01347Y00744*
X01344Y00737*
Y0073*
X01347Y00723*
X01352Y00718*
X01355Y00717*
X01356Y00715*
X01356Y00711*
X01351Y00707*
X01348Y007*
Y00692*
X01351Y00685*
X01356Y0068*
X01359Y00679*
Y00668*
X01359Y00665*
X01361Y00662*
X01369Y00655*
X01416Y00607*
Y00433*
X01417Y0043*
X01418Y00427*
X01421Y00425*
X0142Y00423*
Y00415*
X01423Y00408*
X01428Y00403*
X01435Y004*
X01442*
X01449Y00403*
X01454Y00408*
X01457Y00415*
Y00423*
X01454Y00429*
X01449Y00435*
X01442Y00437*
X01435*
X01433Y00439*
Y00611*
X01432Y00614*
X0143Y00617*
X01375Y00672*
Y00679*
X01378Y0068*
X01383Y00685*
X01384Y00689*
X0139Y0069*
X01502Y00579*
Y0054*
X01497Y00536*
X01495Y00529*
Y00521*
X01497Y00514*
X01503Y00509*
X0151Y00506*
X01517*
X01524Y00509*
X01529Y00514*
X01532Y00521*
Y00529*
X01529Y00536*
X01524Y0054*
Y00583*
X01524Y00587*
X01521Y00591*
X01521*
X01381Y00731*
Y00737*
X01379Y00744*
X01373Y0075*
X01366Y00752*
G37*
G36*
X01672Y0052D02*
X01654D01*
Y00502*
X01662Y00506*
X01668Y00512*
X01672Y0052*
G37*
G36*
X01644D02*
X01627D01*
X0163Y00512*
X01636Y00506*
X01644Y00502*
Y0052*
G37*
G36*
X01364Y00464D02*
X00458D01*
X00454Y00463*
X00451Y00461*
X00369Y00379*
X00368Y00379*
X00361*
X00354Y00377*
X00349Y00371*
X00346Y00364*
Y00357*
X00349Y0035*
X00354Y00345*
X00361Y00342*
X00368*
X00375Y00345*
X00381Y0035*
X00383Y00357*
Y00364*
X00383Y00365*
X00462Y00444*
X00771*
X00775Y00439*
X00773Y00435*
Y00428*
X00776Y00421*
X00781Y00416*
X00782Y00416*
Y00368*
X00778Y00366*
X00772Y00361*
X0077Y00354*
Y00347*
X00772Y0034*
X00778Y00335*
X00785Y00332*
X00792*
X00799Y00335*
X00804Y0034*
X00807Y00347*
Y00354*
X00804Y00361*
X00799Y00366*
X00799Y00366*
Y00414*
X00802Y00416*
X00808Y00421*
X00811Y00428*
Y00435*
X00809Y00439*
X00812Y00444*
X0136*
X01395Y00409*
Y00377*
X01396Y00373*
X01398Y0037*
X01419Y00349*
X01419Y00349*
Y00341*
X01422Y00334*
X01427Y00329*
X01434Y00326*
X01441*
X01448Y00329*
X01453Y00334*
X01456Y00341*
Y00349*
X01453Y00356*
X01448Y00361*
X01441Y00364*
X01434*
X01433Y00363*
X01415Y00381*
Y00413*
X01414Y00417*
X01412Y0042*
X01371Y00461*
X01368Y00463*
X01364Y00464*
G37*
G36*
X0097Y00338D02*
Y0032D01*
X00988*
X00984Y00328*
X00978Y00335*
X0097Y00338*
G37*
G36*
X0096D02*
X00952Y00335D01*
X00946Y00328*
X00942Y0032*
X0096*
Y00338*
G37*
G36*
X00988Y0031D02*
X0097D01*
Y00293*
X00978Y00296*
X00984Y00303*
X00988Y0031*
G37*
G36*
X0096D02*
X00942D01*
X00946Y00303*
X00952Y00296*
X0096Y00293*
Y0031*
G37*
G36*
X00746Y00369D02*
X00739D01*
X00732Y00366*
X00727Y0036*
X00724Y00354*
Y00346*
X00727Y00339*
X00732Y00334*
X00734Y00333*
Y00281*
X00735Y00278*
X00736Y00276*
Y00242*
X00737Y00238*
X00739Y00236*
X00758Y00216*
X00761Y00214*
X00764Y00214*
X01199*
X01203Y00214*
X01205Y00216*
X01277Y00288*
X01279Y00287*
X01287*
X01294Y0029*
X01299Y00295*
X01302Y00302*
Y00309*
X01299Y00316*
X01294Y00321*
X01287Y00324*
X01279*
X01272Y00321*
X01267Y00316*
X01264Y00309*
Y00302*
X01265Y003*
X01196Y0023*
X00979*
X00978Y00235*
X0098Y00236*
X00986Y00242*
X0099Y0025*
X00944*
X00948Y00242*
X00954Y00236*
X00956Y00235*
X00955Y0023*
X00768*
X00753Y00245*
Y00279*
X00752Y00282*
X00751Y00284*
Y00333*
X00753Y00334*
X00758Y00339*
X00761Y00346*
Y00354*
X00758Y0036*
X00753Y00366*
X00746Y00369*
G37*
G36*
X00972Y00278D02*
Y0026D01*
X0099*
X00986Y00268*
X0098Y00275*
X00972Y00278*
G37*
G36*
X00962D02*
X00954Y00275D01*
X00948Y00268*
X00944Y0026*
X00962*
Y00278*
G37*
G36*
X01292Y00272D02*
X01284D01*
X01277Y00269*
X01272Y00264*
X01269Y00257*
Y0025*
X01272Y00243*
X01277Y00238*
X01279Y00237*
Y0021*
X01194Y00125*
X01169*
X01167Y0013*
X01169Y00131*
X01172Y00138*
Y00146*
X01169Y00153*
X01164Y00158*
X01157Y00161*
X01149*
X01147Y0016*
X01119Y00188*
X01116Y0019*
X01113Y00191*
X0109*
X00611Y00199*
X00611Y00199*
X0061Y00199*
X00607*
X00603Y00198*
X00601Y00196*
X00599Y00195*
X00578Y00173*
X00497Y00093*
X00492Y00096*
X00483Y00098*
X00473*
X00463Y00096*
X00455Y00091*
X00448Y00084*
X00443Y00076*
X00441Y00066*
Y00057*
X00443Y00047*
X00448Y00039*
X00455Y00032*
X00463Y00027*
X00473Y00025*
X00483*
X00492Y00027*
X005Y00032*
X00507Y00039*
X00512Y00047*
X00515Y00057*
Y00066*
X00512Y00076*
X00509Y00081*
X0059Y00162*
X0061Y00182*
X0061*
X00663Y00181*
X00664Y00177*
X00664Y00176*
X00664Y00176*
X00664Y00176*
X00663Y00175*
X00663Y00175*
X00663Y00175*
X00595Y00094*
X00592Y00096*
X00583Y00098*
X00573*
X00563Y00096*
X00555Y00091*
X00548Y00084*
X00543Y00076*
X00541Y00066*
Y00057*
X00543Y00047*
X00548Y00039*
X00555Y00032*
X00563Y00027*
X00573Y00025*
X00583*
X00592Y00027*
X006Y00032*
X00607Y00039*
X00612Y00047*
X00615Y00057*
Y00066*
X00612Y00076*
X00607Y00084*
X00657Y00142*
X00663Y00141*
X00664Y00139*
X00669Y00133*
X00672Y00132*
X00673Y00125*
Y00125*
X00672Y00124*
X0067Y00121*
X00669Y00118*
Y00097*
X00663Y00096*
X00655Y00091*
X00648Y00084*
X00643Y00076*
X00641Y00066*
Y00057*
X00643Y00047*
X00648Y00039*
X00655Y00032*
X00663Y00027*
X00673Y00025*
X00683*
X00692Y00027*
X007Y00032*
X00707Y00039*
X00712Y00047*
X00715Y00057*
Y00066*
X00712Y00076*
X00707Y00084*
X007Y00091*
X00692Y00096*
X00686Y00097*
Y00114*
X00687Y00115*
X00689Y00118*
X0069Y00121*
Y00125*
X0069Y00125*
X0069Y00126*
X00689Y00133*
X0069Y00133*
X00695Y00139*
X00698Y00145*
Y00153*
X00696Y00158*
X00698Y00163*
X0109*
X01143Y0011*
X01145Y00108*
X01149Y00108*
X01198*
X01201Y00108*
X01204Y0011*
X01294Y00201*
X01296Y00203*
X01296Y00207*
Y00237*
X01298Y00238*
X01304Y00243*
X01307Y0025*
Y00257*
X01304Y00264*
X01298Y00269*
X01292Y00272*
G37*
G36*
X02283Y00098D02*
X02273D01*
X02263Y00096*
X02255Y00091*
X02248Y00084*
X02243Y00076*
X02241Y00066*
Y00057*
X02243Y00047*
X02248Y00039*
X02255Y00032*
X02263Y00027*
X02273Y00025*
X02283*
X02292Y00027*
X023Y00032*
X02307Y00039*
X02312Y00047*
X02315Y00057*
Y00066*
X02312Y00076*
X02307Y00084*
X023Y00091*
X02292Y00096*
X02283Y00098*
G37*
G36*
X02183D02*
X02173D01*
X02163Y00096*
X02155Y00091*
X02148Y00084*
X02143Y00076*
X02141Y00066*
Y00057*
X02143Y00047*
X02148Y00039*
X02155Y00032*
X02163Y00027*
X02173Y00025*
X02183*
X02192Y00027*
X022Y00032*
X02207Y00039*
X02212Y00047*
X02215Y00057*
Y00066*
X02212Y00076*
X02207Y00084*
X022Y00091*
X02192Y00096*
X02183Y00098*
G37*
G36*
X0144Y00302D02*
X01433D01*
X01426Y00299*
X01421Y00294*
X01418Y00287*
Y00279*
X01421Y00272*
X01426Y00267*
X01433Y00264*
X0144*
X01447Y00267*
X01452Y00272*
X01453Y00275*
X01553*
X01554Y00274*
X01556Y00272*
X0156Y00272*
X01756*
X01946Y00081*
X01943Y00076*
X01941Y00066*
Y00057*
X01943Y00047*
X01948Y00039*
X01955Y00032*
X01963Y00027*
X01973Y00025*
X01983*
X01992Y00027*
X02Y00032*
X02007Y00039*
X02012Y00047*
X02015Y00057*
Y00066*
X02012Y00076*
X02007Y00084*
X02Y00091*
X01992Y00096*
X01983Y00098*
X01973*
X01963Y00096*
X01958Y00093*
X01765Y00286*
X01762Y00288*
X01759Y00288*
X01563*
X01563Y00289*
X0156Y00291*
X01557Y00291*
X01453*
X01452Y00294*
X01447Y00299*
X0144Y00302*
G37*
G36*
X01883Y00098D02*
X01873D01*
X01863Y00096*
X01855Y00091*
X01848Y00084*
X01843Y00076*
X01841Y00066*
Y00057*
X01843Y00047*
X01848Y00039*
X01855Y00032*
X01863Y00027*
X01873Y00025*
X01883*
X01892Y00027*
X019Y00032*
X01907Y00039*
X01912Y00047*
X01915Y00057*
Y00066*
X01912Y00076*
X01907Y00084*
X019Y00091*
X01892Y00096*
X01883Y00098*
G37*
G36*
X01783D02*
X01773D01*
X01763Y00096*
X01755Y00091*
X01748Y00084*
X01743Y00076*
X01741Y00066*
Y00057*
X01743Y00047*
X01748Y00039*
X01755Y00032*
X01763Y00027*
X01773Y00025*
X01783*
X01792Y00027*
X018Y00032*
X01807Y00039*
X01812Y00047*
X01815Y00057*
Y00066*
X01812Y00076*
X01807Y00084*
X018Y00091*
X01792Y00096*
X01783Y00098*
G37*
G36*
X01683D02*
X01673D01*
X01663Y00096*
X01655Y00091*
X01648Y00084*
X01643Y00076*
X01641Y00066*
Y00057*
X01643Y00047*
X01648Y00039*
X01655Y00032*
X01663Y00027*
X01673Y00025*
X01683*
X01692Y00027*
X017Y00032*
X01707Y00039*
X01712Y00047*
X01715Y00057*
Y00066*
X01712Y00076*
X01707Y00084*
X017Y00091*
X01692Y00096*
X01683Y00098*
G37*
G36*
X01583D02*
X01573D01*
X01563Y00096*
X01555Y00091*
X01548Y00084*
X01543Y00076*
X01541Y00066*
Y00057*
X01543Y00047*
X01548Y00039*
X01555Y00032*
X01563Y00027*
X01573Y00025*
X01583*
X01592Y00027*
X016Y00032*
X01607Y00039*
X01612Y00047*
X01615Y00057*
Y00066*
X01612Y00076*
X01607Y00084*
X016Y00091*
X01592Y00096*
X01583Y00098*
G37*
G36*
X01483D02*
X01473D01*
X01463Y00096*
X01455Y00091*
X01448Y00084*
X01443Y00076*
X01441Y00066*
Y00057*
X01443Y00047*
X01448Y00039*
X01455Y00032*
X01463Y00027*
X01473Y00025*
X01483*
X01492Y00027*
X015Y00032*
X01507Y00039*
X01512Y00047*
X01515Y00057*
Y00066*
X01512Y00076*
X01507Y00084*
X015Y00091*
X01492Y00096*
X01483Y00098*
G37*
G36*
X01383D02*
X01373D01*
X01363Y00096*
X01355Y00091*
X01348Y00084*
X01343Y00076*
X01341Y00066*
Y00057*
X01343Y00047*
X01348Y00039*
X01355Y00032*
X01363Y00027*
X01373Y00025*
X01383*
X01392Y00027*
X014Y00032*
X01407Y00039*
X01412Y00047*
X01415Y00057*
Y00066*
X01412Y00076*
X01407Y00084*
X014Y00091*
X01392Y00096*
X01383Y00098*
G37*
G36*
X01283D02*
X01273D01*
X01263Y00096*
X01255Y00091*
X01248Y00084*
X01243Y00076*
X01241Y00066*
Y00057*
X01243Y00047*
X01248Y00039*
X01255Y00032*
X01263Y00027*
X01273Y00025*
X01283*
X01292Y00027*
X013Y00032*
X01307Y00039*
X01312Y00047*
X01315Y00057*
Y00066*
X01312Y00076*
X01307Y00084*
X013Y00091*
X01292Y00096*
X01283Y00098*
G37*
G36*
X01183D02*
X01173D01*
X01163Y00096*
X01155Y00091*
X01148Y00084*
X01143Y00076*
X01141Y00066*
Y00057*
X01143Y00047*
X01148Y00039*
X01155Y00032*
X01163Y00027*
X01173Y00025*
X01183*
X01192Y00027*
X012Y00032*
X01207Y00039*
X01212Y00047*
X01215Y00057*
Y00066*
X01212Y00076*
X01207Y00084*
X012Y00091*
X01192Y00096*
X01183Y00098*
G37*
G36*
X01083D02*
X01073D01*
X01063Y00096*
X01055Y00091*
X01048Y00084*
X01043Y00076*
X01041Y00066*
Y00057*
X01043Y00047*
X01048Y00039*
X01055Y00032*
X01063Y00027*
X01073Y00025*
X01083*
X01092Y00027*
X011Y00032*
X01107Y00039*
X01112Y00047*
X01115Y00057*
Y00066*
X01112Y00076*
X01107Y00084*
X011Y00091*
X01092Y00096*
X01083Y00098*
G37*
G36*
X00983D02*
X00973D01*
X00963Y00096*
X00955Y00091*
X00948Y00084*
X00943Y00076*
X00941Y00066*
Y00057*
X00943Y00047*
X00948Y00039*
X00955Y00032*
X00963Y00027*
X00973Y00025*
X00983*
X00992Y00027*
X01Y00032*
X01007Y00039*
X01012Y00047*
X01015Y00057*
Y00066*
X01012Y00076*
X01007Y00084*
X01Y00091*
X00992Y00096*
X00983Y00098*
G37*
G36*
X00883D02*
X00873D01*
X00863Y00096*
X00855Y00091*
X00848Y00084*
X00843Y00076*
X00841Y00066*
Y00057*
X00843Y00047*
X00848Y00039*
X00855Y00032*
X00863Y00027*
X00873Y00025*
X00883*
X00892Y00027*
X009Y00032*
X00907Y00039*
X00912Y00047*
X00915Y00057*
Y00066*
X00912Y00076*
X00907Y00084*
X009Y00091*
X00892Y00096*
X00883Y00098*
G37*
G36*
X00783D02*
X00773D01*
X00763Y00096*
X00755Y00091*
X00748Y00084*
X00743Y00076*
X00741Y00066*
Y00057*
X00743Y00047*
X00748Y00039*
X00755Y00032*
X00763Y00027*
X00773Y00025*
X00783*
X00792Y00027*
X008Y00032*
X00807Y00039*
X00812Y00047*
X00815Y00057*
Y00066*
X00812Y00076*
X00807Y00084*
X008Y00091*
X00792Y00096*
X00783Y00098*
G37*
G36*
X00383D02*
X00373D01*
X00363Y00096*
X00355Y00091*
X00348Y00084*
X00343Y00076*
X00341Y00066*
Y00057*
X00343Y00047*
X00348Y00039*
X00355Y00032*
X00363Y00027*
X00373Y00025*
X00383*
X00392Y00027*
X004Y00032*
X00407Y00039*
X00412Y00047*
X00415Y00057*
Y00066*
X00412Y00076*
X00407Y00084*
X004Y00091*
X00392Y00096*
X00383Y00098*
G37*
%LNesp32_copper_signal_bot-3*%
%LPD*%
G54D10*
X00745Y00242D02*
X00764Y00222D01*
X00745Y00242D02*
Y00279D01*
X00743Y00281D02*
X00745Y00279D01*
X00743Y00281D02*
Y0035D01*
X00764Y00222D02*
X01199D01*
X01283Y00306*
X01653Y00478D02*
X01659D01*
X01661Y0048*
X01424Y00433D02*
X01438Y00419D01*
X01424Y00433D02*
Y00611D01*
X02337Y0095D02*
X02392Y01005D01*
X01175Y00616D02*
X01509Y0095D01*
X02337*
X02078Y00062D02*
Y00077D01*
X01722Y00675D02*
X01728Y00481D01*
X0173Y00427D02*
X0173Y00427D01*
X02078Y00077D02*
Y00062D01*
X02075Y0008D02*
X02078Y00077D01*
X0173Y00427D02*
X02064Y00092D01*
X02075Y0008*
X01728Y00481D02*
X0173Y00427D01*
X01661Y0048D02*
X01685D01*
X01689D02*
X01707Y00482D01*
X01685Y0048D02*
X01689D01*
X0172Y00676D02*
X01722Y00675D01*
X01549Y00847D02*
X0172Y00676D01*
X00982Y0059D02*
X00985Y00593D01*
X01175Y00598D02*
Y00616D01*
X00985Y00593D02*
X0117D01*
X01175Y00598*
X02392Y01014D02*
X02396Y01018D01*
X02392Y01005D02*
Y01014D01*
X01443Y00847D02*
X01549D01*
X02078Y00062D02*
Y00077D01*
X01814Y00369D02*
Y00375D01*
X02043Y00141D02*
X02298D01*
X01814Y00369D02*
X02043Y00141D01*
X01367Y00668D02*
X01375Y00661D01*
X01367Y00668D02*
Y00696D01*
X01288Y00207D02*
Y00253D01*
X01198Y00116D02*
X01288Y00207D01*
X0079Y00352D02*
Y0043D01*
X00792Y00432*
X00788Y0035D02*
X0079Y00352D01*
X01437Y00283D02*
X01557D01*
X0156Y0028*
X01759*
X00675Y00172D02*
X01093D01*
X01149Y00116*
X01198*
X01113Y00182D02*
X01153Y00142D01*
X0109Y00182D02*
X01113D01*
X0061Y0019D02*
X0109Y00182D01*
X00578Y00062D02*
X00669Y00169D01*
X0067Y0017*
X00675Y00172*
X0068Y00149D02*
X00681Y00125D01*
Y00121D02*
Y00125D01*
X00678Y00118D02*
X00681Y00121D01*
X00607Y0019D02*
X0061D01*
X00678Y00062D02*
Y00118D01*
X00605Y00189D02*
X00607Y0019D01*
X00584Y00167D02*
X00605Y00189D01*
X01759Y0028D02*
X01978Y00062D01*
X01375Y00661D02*
X01424Y00611D01*
X00478Y00062D02*
X00584Y00167D01*
X02298Y00141D02*
X02378Y00062D01*
G54D11*
X01405Y00377D02*
Y00413D01*
X01364Y00454D02*
X01405Y00413D01*
X02489Y01073D02*
X02603Y00959D01*
Y00056D02*
Y00959D01*
X00871Y00651D02*
X01115D01*
X00708Y00814D02*
X00871Y00651D01*
X01115D02*
X01174Y0071D01*
X00375Y00814D02*
X00708D01*
X02481Y01073D02*
X02489D01*
X00458Y00454D02*
X01364D01*
X00365Y00361D02*
X00458Y00454D01*
X01405Y00377D02*
X01437Y00345D01*
X00356Y00833D02*
X00375Y00814D01*
G54D37*
X02351Y01016D02*
D01*
X02352Y01016*
X02352Y01016*
X02353Y01017*
X02353Y01017*
X02354Y01017*
X02354Y01018*
X02355Y01018*
X02355Y01019*
X02356Y01019*
X02356Y0102*
X02357Y0102*
X02357Y01021*
X02357Y01022*
X02357Y01022*
X00498Y01093D02*
D01*
Y01093*
X00498*
Y01093*
X02044Y00921D02*
X02407D01*
X01888Y00803D02*
X02022Y00937D01*
X01959Y00836D02*
X02044Y00921D01*
X02022Y00937D02*
X02352D01*
X02474Y01058*
X00559Y00985D02*
X00868Y00676D01*
X01054D02*
X01057Y00679D01*
X01083*
X00868Y00676D02*
X01054D01*
X01174Y00652D02*
Y00672D01*
X01171Y00649D02*
X01174Y00652D01*
Y00672D02*
X01484Y00982D01*
X00559Y00985D02*
Y01002D01*
X00551Y00786D02*
X00707D01*
X00928Y00565*
X00549Y01011D02*
X00559Y01002D01*
X00549Y01011D02*
Y01015D01*
X02317Y00982D02*
X02351Y01016D01*
X01484Y00982D02*
X02317D01*
X02474Y01072D02*
X02475Y01073D01*
X02481*
X02474Y01058D02*
Y01072D01*
X00928Y00565D02*
X01326D01*
X02351Y01016D02*
D01*
X02357Y01022D02*
X02381Y01096D01*
X01326Y00565D02*
X01373Y00612D01*
X01363Y00734D02*
X01513Y00583D01*
X01888Y00667D02*
Y00803D01*
X02481Y01073D02*
Y01096D01*
X01959Y00667D02*
Y00836D01*
Y00667D02*
X01962Y00664D01*
X0117Y00761D02*
Y0083D01*
X01168Y00832D02*
X0117Y0083D01*
Y00761D02*
X01173Y00758D01*
X01513Y00525D02*
Y00583D01*
X00481Y01096D02*
X00495D01*
X00498Y01093D02*
X005Y01091D01*
X00495Y01096D02*
X00498Y01093D01*
G54D38*
X00281Y01096D03*
X00381D03*
X00481D03*
X00581D03*
X00681D03*
X00781D03*
X00881D03*
X00981D03*
X01081D03*
X01181D03*
X01281D03*
X01381D03*
X01481D03*
X01581D03*
X01681D03*
X01781D03*
X01881D03*
X01981D03*
X02081D03*
X02181D03*
X02281D03*
X02381D03*
X02481D03*
X02581D03*
X00278Y00062D03*
X00378D03*
X00478D03*
X00578D03*
X00678D03*
X00778D03*
X00878D03*
X00978D03*
X01078D03*
X01178D03*
X01278D03*
X01378D03*
X01478D03*
X01578D03*
X01678D03*
X01778D03*
X01878D03*
X01978D03*
X02078D03*
X02178D03*
X02278D03*
X02378D03*
X02478D03*
X02578D03*
G54D39*
X00071Y00978D03*
Y00637D03*
X00073Y0054D03*
Y002D03*
G54D40*
X00229Y00978D03*
Y00637D03*
X00231Y0054D03*
Y002D03*
G54D41*
X01438Y00419D03*
X02407Y00921D03*
X00965Y00315D03*
X00967Y00255D03*
X01707Y00482D03*
X01653Y00478D03*
X01173Y00596D03*
X01171Y00649D03*
X01083Y00679D03*
X00551Y00786D03*
X01443Y00847D03*
X02396Y01018D03*
X00982Y0059D03*
X01363Y00734D03*
X01814Y00375D03*
X01962Y00664D03*
X01888Y00667D03*
X01168Y00832D03*
X01174Y0071D03*
X01173Y00758D03*
X01367Y00696D03*
X01373Y00612D03*
X01513Y00525D03*
X01288Y00253D03*
X00743Y0035D03*
X00792Y00432D03*
X01283Y00306D03*
X01437Y00283D03*
X01437Y00345D03*
X01153Y00142D03*
X0068Y00149D03*
X01221Y0054D03*
X00788Y0035D03*
X00549Y01015D03*
X01649Y00525D03*
X00365Y00361D03*
X00356Y00833D03*
M02*