%FSTAX23Y23*%
%MOIN*%
%SFA1B1*%

%IPPOS*%
%ADD78C,0.042000*%
%ADD79O,0.070866X0.023622*%
%ADD80O,0.055118X0.023622*%
%ADD81C,0.013780*%
%ADD82C,0.012598*%
%LNesp32_pth_drill-1*%
%LPD*%
G54D78*
X00281Y01096D03*
X00381D03*
X00481D03*
X00581D03*
X00681D03*
X00781D03*
X00881D03*
X00981D03*
X01081D03*
X01181D03*
X01281D03*
X01381D03*
X01481D03*
X01581D03*
X01681D03*
X01781D03*
X01881D03*
X01981D03*
X02081D03*
X02181D03*
X02281D03*
X02381D03*
X02481D03*
X02581D03*
X00278Y00062D03*
X00378D03*
X00478D03*
X00578D03*
X00678D03*
X00778D03*
X00878D03*
X00978D03*
X01078D03*
X01178D03*
X01278D03*
X01378D03*
X01478D03*
X01578D03*
X01678D03*
X01778D03*
X01878D03*
X01978D03*
X02078D03*
X02178D03*
X02278D03*
X02378D03*
X02478D03*
X02578D03*
G54D79*
X00071Y00978D03*
Y00637D03*
X00073Y0054D03*
Y002D03*
G54D80*
X00229Y00978D03*
Y00637D03*
X00231Y0054D03*
Y002D03*
G54D81*
X01438Y00419D03*
X01437Y00345D03*
X01649Y00525D03*
G54D82*
X02407Y00921D03*
X00965Y00315D03*
X00967Y00255D03*
X01707Y00482D03*
X01653Y00478D03*
X01173Y00596D03*
X01171Y00649D03*
X01083Y00679D03*
X00551Y00786D03*
X01443Y00847D03*
X02396Y01018D03*
X00982Y0059D03*
X01363Y00734D03*
X01814Y00375D03*
X01962Y00664D03*
X01888Y00667D03*
X01168Y00832D03*
X01174Y0071D03*
X01173Y00758D03*
X01367Y00696D03*
X01373Y00612D03*
X01513Y00525D03*
X01288Y00253D03*
X00743Y0035D03*
X00792Y00432D03*
X01283Y00306D03*
X01437Y00283D03*
X01153Y00142D03*
X0068Y00149D03*
X01221Y0054D03*
X00788Y0035D03*
X00549Y01015D03*
X00365Y00361D03*
X00356Y00833D03*
M02*