%FSTAX23Y23*%
%MOIN*%
%SFA1B1*%

%IPPOS*%
%AMD13*
4,1,8,0.015200,0.005300,-0.015200,0.005300,-0.016500,0.004000,-0.016500,-0.004000,-0.015200,-0.005300,0.015200,-0.005300,0.016500,-0.004000,0.016500,0.004000,0.015200,0.005300,0.0*
1,1,0.002657,0.015200,0.004000*
1,1,0.002657,-0.015200,0.004000*
1,1,0.002657,-0.015200,-0.004000*
1,1,0.002657,0.015200,-0.004000*
%
%AMD14*
4,1,8,-0.005300,0.015200,-0.005300,-0.015200,-0.004000,-0.016500,0.004000,-0.016500,0.005300,-0.015200,0.005300,0.015200,0.004000,0.016500,-0.004000,0.016500,-0.005300,0.015200,0.0*
1,1,0.002657,-0.004000,0.015200*
1,1,0.002657,-0.004000,-0.015200*
1,1,0.002657,0.004000,-0.015200*
1,1,0.002657,0.004000,0.015200*
%
%AMD17*
4,1,8,-0.014200,0.009400,-0.014200,-0.009400,-0.011000,-0.012600,0.011000,-0.012600,0.014200,-0.009400,0.014200,0.009400,0.011000,0.012600,-0.011000,0.012600,-0.014200,0.009400,0.0*
1,1,0.006299,-0.011000,0.009400*
1,1,0.006299,-0.011000,-0.009400*
1,1,0.006299,0.011000,-0.009400*
1,1,0.006299,0.011000,0.009400*
%
%AMD24*
4,1,8,-0.008000,-0.011800,0.008000,-0.011800,0.010600,-0.009200,0.010600,0.009200,0.008000,0.011800,-0.008000,0.011800,-0.010600,0.009200,-0.010600,-0.009200,-0.008000,-0.011800,0.0*
1,1,0.005315,-0.008000,-0.009200*
1,1,0.005315,0.008000,-0.009200*
1,1,0.005315,0.008000,0.009200*
1,1,0.005315,-0.008000,0.009200*
%
%AMD27*
4,1,8,0.011800,-0.008000,0.011800,0.008000,0.009200,0.010600,-0.009200,0.010600,-0.011800,0.008000,-0.011800,-0.008000,-0.009200,-0.010600,0.009200,-0.010600,0.011800,-0.008000,0.0*
1,1,0.005315,0.009200,-0.008000*
1,1,0.005315,0.009200,0.008000*
1,1,0.005315,-0.009200,0.008000*
1,1,0.005315,-0.009200,-0.008000*
%
%AMD31*
4,1,8,-0.012000,0.009900,-0.012000,-0.009900,-0.010300,-0.011600,0.010300,-0.011600,0.012000,-0.009900,0.012000,0.009900,0.010300,0.011600,-0.010300,0.011600,-0.012000,0.009900,0.0*
1,1,0.003484,-0.010300,0.009900*
1,1,0.003484,-0.010300,-0.009900*
1,1,0.003484,0.010300,-0.009900*
1,1,0.003484,0.010300,0.009900*
%
%AMD32*
4,1,8,0.009400,0.014200,-0.009400,0.014200,-0.012600,0.011000,-0.012600,-0.011000,-0.009400,-0.014200,0.009400,-0.014200,0.012600,-0.011000,0.012600,0.011000,0.009400,0.014200,0.0*
1,1,0.006299,0.009400,0.011000*
1,1,0.006299,-0.009400,0.011000*
1,1,0.006299,-0.009400,-0.011000*
1,1,0.006299,0.009400,-0.011000*
%
%AMD33*
4,1,8,0.013200,-0.008900,0.013200,0.008900,0.010200,0.011800,-0.010200,0.011800,-0.013200,0.008900,-0.013200,-0.008900,-0.010200,-0.011800,0.010200,-0.011800,0.013200,-0.008900,0.0*
1,1,0.005906,0.010200,-0.008900*
1,1,0.005906,0.010200,0.008900*
1,1,0.005906,-0.010200,0.008900*
1,1,0.005906,-0.010200,-0.008900*
%
G04~CAMADD=13~8~0.0~0.0~330.7~106.3~13.3~0.0~15~0.0~0.0~0.0~0.0~0~0.0~0.0~0.0~0.0~0~0.0~0.0~0.0~0.0~330.7~106.3*
%ADD13D13*%
G04~CAMADD=14~8~0.0~0.0~330.7~106.3~13.3~0.0~15~0.0~0.0~0.0~0.0~0~0.0~0.0~0.0~0.0~0~0.0~0.0~0.0~90.0~106.0~330.0*
%ADD14D14*%
%ADD15R,0.127952X0.084645*%
%ADD16R,0.037401X0.084645*%
G04~CAMADD=17~8~0.0~0.0~252.0~283.5~31.5~0.0~15~0.0~0.0~0.0~0.0~0~0.0~0.0~0.0~0.0~0~0.0~0.0~0.0~90.0~284.0~253.0*
%ADD17D17*%
%ADD18R,0.015748X0.031496*%
%ADD19R,0.047244X0.047244*%
%ADD21R,0.031496X0.015748*%
%ADD22R,0.031496X0.031496*%
%ADD23R,0.051000X0.061000*%
G04~CAMADD=24~8~0.0~0.0~212.6~236.2~26.6~0.0~15~0.0~0.0~0.0~0.0~0~0.0~0.0~0.0~0.0~0~0.0~0.0~0.0~180.0~212.0~236.0*
%ADD24D24*%
%ADD25R,0.023622X0.021260*%
%ADD26R,0.035433X0.027559*%
G04~CAMADD=27~8~0.0~0.0~212.6~236.2~26.6~0.0~15~0.0~0.0~0.0~0.0~0~0.0~0.0~0.0~0.0~0~0.0~0.0~0.0~270.0~236.0~212.0*
%ADD27D27*%
%ADD28R,0.023622X0.031496*%
%ADD29R,0.027559X0.035433*%
%ADD30R,0.021260X0.023622*%
G04~CAMADD=31~8~0.0~0.0~232.3~240.2~17.4~0.0~15~0.0~0.0~0.0~0.0~0~0.0~0.0~0.0~0.0~0~0.0~0.0~0.0~90.0~240.0~232.0*
%ADD31D31*%
G04~CAMADD=32~8~0.0~0.0~252.0~283.5~31.5~0.0~15~0.0~0.0~0.0~0.0~0~0.0~0.0~0.0~0.0~0~0.0~0.0~0.0~0.0~252.0~283.5*
%ADD32D32*%
G04~CAMADD=33~8~0.0~0.0~236.2~263.8~29.5~0.0~15~0.0~0.0~0.0~0.0~0~0.0~0.0~0.0~0.0~0~0.0~0.0~0.0~270.0~264.0~236.0*
%ADD33D33*%
%ADD34R,0.045275X0.023228*%
%ADD35R,0.045275X0.011732*%
%ADD36R,0.012000X0.022000*%
%ADD76R,0.049606X0.049606*%
%LNesp32_paste_top-1*%
%LPD*%
G36*
X02375Y00624D02*
Y00671D01*
X02398*
X02422Y00647*
Y00624*
X02375*
G37*
G54D13*
X01573Y00744D03*
Y00724D03*
Y00704D03*
Y00685D03*
Y00665D03*
X0142D03*
Y00685D03*
Y00704D03*
Y00724D03*
Y00744D03*
G54D14*
X01457Y0078D03*
X01477D03*
X01497D03*
X01516D03*
X01536D03*
Y00628D03*
X01516D03*
X01497D03*
X01477D03*
X01457D03*
G54D15*
X01083Y00292D03*
G54D16*
X00993Y0052D03*
X01083D03*
X01174D03*
G54D17*
X0092Y0031D03*
Y00345D03*
X01312Y00524D03*
Y00489D03*
X01262Y0049D03*
Y00525D03*
G54D18*
X025Y00858D03*
X02567Y00307D03*
X02534D03*
X025D03*
X02467D03*
X02434D03*
X024D03*
X02367D03*
X02333D03*
X023D03*
X02266D03*
X02233D03*
X02199D03*
X02166D03*
X02132D03*
X02099D03*
Y00858D03*
X02132D03*
X02166D03*
X02199D03*
X02233D03*
X02266D03*
X023D03*
X02333D03*
X02367D03*
X024D03*
X02434D03*
X02467D03*
X02534D03*
X02567D03*
G54D19*
X02333Y00647D03*
X02268D03*
Y00582D03*
Y00517D03*
X02333D03*
X02398D03*
Y00582D03*
X02333D03*
G54D21*
X02609Y00816D03*
Y00783D03*
Y0075D03*
Y00716D03*
Y00683D03*
Y00649D03*
Y00616D03*
Y00582D03*
Y00549D03*
Y00515D03*
Y00482D03*
Y00448D03*
Y00415D03*
Y00381D03*
Y00348D03*
X02058D03*
Y00381D03*
Y00415D03*
Y00448D03*
Y00482D03*
Y00515D03*
Y00549D03*
Y00582D03*
Y00616D03*
Y00649D03*
Y00683D03*
Y00716D03*
Y0075D03*
Y00783D03*
Y00816D03*
G54D22*
X02058Y00307D03*
X02609D03*
X02058Y00858D03*
X02609D03*
G54D23*
X00793Y00241D03*
X00616D03*
Y00554D03*
X00793D03*
X00613Y00942D03*
Y00629D03*
X0079Y00942D03*
Y00629D03*
G54D24*
X00916Y0025D03*
X00882D03*
X01597Y00476D03*
X01563D03*
X01596Y00519D03*
X01562D03*
X01046Y0063D03*
X0108D03*
X02568Y01003D03*
X02602D03*
G54D25*
X00868Y00308D03*
Y00342D03*
X00909Y00668D03*
Y00702D03*
X01331Y00645D03*
Y00611D03*
X01209Y00816D03*
Y0085D03*
X00909Y0083D03*
Y00864D03*
X01243Y00639D03*
Y00605D03*
X01288Y00641D03*
Y00607D03*
G54D26*
X01321Y00812D03*
Y00864D03*
X01369Y00415D03*
Y00364D03*
X01261Y00363D03*
Y00414D03*
X01315Y00415D03*
Y00364D03*
X01363Y00535D03*
Y00484D03*
X01549Y00345D03*
Y00396D03*
X01612Y00397D03*
Y00346D03*
X01261Y00861D03*
Y0081D03*
G54D27*
X01633Y00643D03*
Y00609D03*
X0175Y00623D03*
Y00589D03*
X01799Y00625D03*
Y00591D03*
X01634Y00684D03*
Y00718D03*
X00341Y0091D03*
Y00944D03*
X00329Y00509D03*
Y00475D03*
G54D28*
X01038Y0069D03*
X01075Y0077D03*
X01D03*
X01033Y00907D03*
X00996Y00827D03*
X0107D03*
G54D29*
X0175Y0054D03*
X01802D03*
X01751Y00488D03*
X01803D03*
X01552Y00565D03*
X01603D03*
G54D30*
X01799Y00672D03*
X01833D03*
X01719Y0067D03*
X01753D03*
X01784Y00801D03*
X0175D03*
X01784Y00849D03*
X0175D03*
X00462Y00878D03*
X00428D03*
X00431Y00731D03*
X00465D03*
X00455Y00278D03*
X00453Y00428D03*
X00421Y00278D03*
X00419Y00428D03*
G54D31*
X0175Y00756D03*
Y00723D03*
X018Y00759D03*
Y00727D03*
G54D32*
X0097Y00629D03*
X01005D03*
X02569Y00953D03*
X02603D03*
G54D33*
X00913Y00782D03*
Y00748D03*
G54D34*
X00251Y00934D03*
Y00682D03*
Y00713D03*
Y00902D03*
X00253Y00496D03*
Y00244D03*
Y00276D03*
Y00465D03*
G54D35*
X00251Y00876D03*
Y00739D03*
Y00758D03*
Y00857D03*
Y00837D03*
Y00778D03*
Y00798D03*
Y00817D03*
X00253Y0038D03*
Y00439D03*
Y00301D03*
Y00321D03*
Y0042D03*
Y004D03*
Y00341D03*
Y00361D03*
G54D36*
X00448Y00379D03*
X00423D03*
X00432Y0078D03*
X00457D03*
X00432Y0083D03*
X00457D03*
X00458Y00926D03*
X00449Y00328D03*
X00446Y00477D03*
X00424Y00328D03*
X00433Y00926D03*
X00421Y00477D03*
G54D76*
X01497Y00704D03*
M02*