%FSTAX23Y23*%
%MOIN*%
%SFA1B1*%

%IPPOS*%
%ADD42C,0.007874*%
%ADD43C,0.020000*%
%ADD44C,0.010000*%
%ADD45C,0.005000*%
%ADD46C,0.006000*%
%ADD47C,0.005905*%
%LNesp32_legend_top-1*%
%LPD*%
G54D42*
X01383Y00744D02*
D01*
X01383Y00744*
X01383Y00744*
X01383Y00744*
X01383Y00745*
X01383Y00745*
X01383Y00745*
X01383Y00745*
X01383Y00746*
X01383Y00746*
X01382Y00746*
X01382Y00746*
X01382Y00747*
X01382Y00747*
X01382Y00747*
X01381Y00747*
X01381Y00747*
X01381Y00747*
X01381Y00747*
X0138Y00747*
X0138Y00747*
X0138Y00748*
X0138Y00748*
X01379*
X01379Y00748*
X01379Y00747*
X01378Y00747*
X01378Y00747*
X01378Y00747*
X01378Y00747*
X01377Y00747*
X01377Y00747*
X01377Y00747*
X01377Y00747*
X01377Y00746*
X01376Y00746*
X01376Y00746*
X01376Y00746*
X01376Y00745*
X01376Y00745*
X01376Y00745*
X01376Y00745*
X01376Y00744*
X01376Y00744*
X01375Y00744*
X01375Y00744*
X01375Y00743*
X01376Y00743*
X01376Y00743*
X01376Y00743*
X01376Y00742*
X01376Y00742*
X01376Y00742*
X01376Y00742*
X01376Y00741*
X01376Y00741*
X01377Y00741*
X01377Y00741*
X01377Y0074*
X01377Y0074*
X01377Y0074*
X01378Y0074*
X01378Y0074*
X01378Y0074*
X01378Y0074*
X01379Y0074*
X01379Y0074*
X01379Y0074*
X0138*
X0138Y0074*
X0138Y0074*
X0138Y0074*
X01381Y0074*
X01381Y0074*
X01381Y0074*
X01381Y0074*
X01382Y0074*
X01382Y0074*
X01382Y00741*
X01382Y00741*
X01382Y00741*
X01383Y00741*
X01383Y00742*
X01383Y00742*
X01383Y00742*
X01383Y00742*
X01383Y00743*
X01383Y00743*
X01383Y00743*
X01383Y00743*
X01383Y00744*
X01178Y00587D02*
D01*
X01178Y00587*
X01178Y00588*
X01178Y00588*
X01177Y00588*
X01177Y00588*
X01177Y00589*
X01177Y00589*
X01177Y00589*
X01177Y00589*
X01177Y0059*
X01177Y0059*
X01176Y0059*
X01176Y0059*
X01176Y0059*
X01176Y00591*
X01175Y00591*
X01175Y00591*
X01175Y00591*
X01175Y00591*
X01174Y00591*
X01174Y00591*
X01174Y00591*
X01174*
X01173Y00591*
X01173Y00591*
X01173Y00591*
X01172Y00591*
X01172Y00591*
X01172Y00591*
X01172Y00591*
X01172Y0059*
X01171Y0059*
X01171Y0059*
X01171Y0059*
X01171Y0059*
X01171Y00589*
X0117Y00589*
X0117Y00589*
X0117Y00589*
X0117Y00588*
X0117Y00588*
X0117Y00588*
X0117Y00588*
X0117Y00587*
X0117Y00587*
X0117Y00587*
X0117Y00587*
X0117Y00586*
X0117Y00586*
X0117Y00586*
X0117Y00585*
X0117Y00585*
X0117Y00585*
X01171Y00585*
X01171Y00585*
X01171Y00584*
X01171Y00584*
X01171Y00584*
X01172Y00584*
X01172Y00584*
X01172Y00584*
X01172Y00583*
X01172Y00583*
X01173Y00583*
X01173Y00583*
X01173Y00583*
X01174Y00583*
X01174*
X01174Y00583*
X01174Y00583*
X01175Y00583*
X01175Y00583*
X01175Y00583*
X01175Y00584*
X01176Y00584*
X01176Y00584*
X01176Y00584*
X01176Y00584*
X01177Y00584*
X01177Y00585*
X01177Y00585*
X01177Y00585*
X01177Y00585*
X01177Y00585*
X01177Y00586*
X01177Y00586*
X01178Y00586*
X01178Y00587*
X01178Y00587*
X01178Y00587*
X02571Y00915D02*
D01*
X02571Y00915*
X02571Y00915*
X02571Y00916*
X02571Y00916*
X02571Y00916*
X02571Y00916*
X02571Y00917*
X02571Y00917*
X02571Y00917*
X0257Y00917*
X0257Y00918*
X0257Y00918*
X0257Y00918*
X0257Y00918*
X02569Y00918*
X02569Y00918*
X02569Y00919*
X02569Y00919*
X02568Y00919*
X02568Y00919*
X02568Y00919*
X02568Y00919*
X02567*
X02567Y00919*
X02567Y00919*
X02566Y00919*
X02566Y00919*
X02566Y00919*
X02566Y00918*
X02565Y00918*
X02565Y00918*
X02565Y00918*
X02565Y00918*
X02565Y00918*
X02564Y00917*
X02564Y00917*
X02564Y00917*
X02564Y00917*
X02564Y00916*
X02564Y00916*
X02564Y00916*
X02564Y00916*
X02564Y00915*
X02563Y00915*
X02563Y00915*
X02563Y00915*
X02564Y00914*
X02564Y00914*
X02564Y00914*
X02564Y00914*
X02564Y00913*
X02564Y00913*
X02564Y00913*
X02564Y00913*
X02564Y00912*
X02565Y00912*
X02565Y00912*
X02565Y00912*
X02565Y00912*
X02565Y00911*
X02566Y00911*
X02566Y00911*
X02566Y00911*
X02566Y00911*
X02567Y00911*
X02567Y00911*
X02567Y00911*
X02568*
X02568Y00911*
X02568Y00911*
X02568Y00911*
X02569Y00911*
X02569Y00911*
X02569Y00911*
X02569Y00911*
X0257Y00912*
X0257Y00912*
X0257Y00912*
X0257Y00912*
X0257Y00912*
X02571Y00913*
X02571Y00913*
X02571Y00913*
X02571Y00913*
X02571Y00914*
X02571Y00914*
X02571Y00914*
X02571Y00914*
X02571Y00915*
X02571Y00915*
X0113Y0077D02*
D01*
X0113Y0077*
X0113Y0077*
X0113Y0077*
X0113Y00771*
X0113Y00771*
X0113Y00771*
X0113Y00771*
X0113Y00772*
X0113Y00772*
X01129Y00772*
X01129Y00772*
X01129Y00773*
X01129Y00773*
X01129Y00773*
X01128Y00773*
X01128Y00773*
X01128Y00773*
X01128Y00773*
X01127Y00773*
X01127Y00773*
X01127Y00773*
X01127Y00774*
X01126*
X01126Y00773*
X01126Y00773*
X01126Y00773*
X01125Y00773*
X01125Y00773*
X01125Y00773*
X01125Y00773*
X01124Y00773*
X01124Y00773*
X01124Y00773*
X01124Y00772*
X01123Y00772*
X01123Y00772*
X01123Y00772*
X01123Y00771*
X01123Y00771*
X01123Y00771*
X01123Y00771*
X01123Y0077*
X01123Y0077*
X01123Y0077*
X01123Y0077*
X01123Y00769*
X01123Y00769*
X01123Y00769*
X01123Y00768*
X01123Y00768*
X01123Y00768*
X01123Y00768*
X01123Y00767*
X01123Y00767*
X01123Y00767*
X01124Y00767*
X01124Y00767*
X01124Y00766*
X01124Y00766*
X01125Y00766*
X01125Y00766*
X01125Y00766*
X01125Y00766*
X01126Y00766*
X01126Y00766*
X01126Y00766*
X01126Y00766*
X01127*
X01127Y00766*
X01127Y00766*
X01127Y00766*
X01128Y00766*
X01128Y00766*
X01128Y00766*
X01128Y00766*
X01129Y00766*
X01129Y00766*
X01129Y00767*
X01129Y00767*
X01129Y00767*
X0113Y00767*
X0113Y00767*
X0113Y00768*
X0113Y00768*
X0113Y00768*
X0113Y00768*
X0113Y00769*
X0113Y00769*
X0113Y00769*
X0113Y0077*
X00948Y00827D02*
D01*
X00948Y00828*
X00948Y00828*
X00948Y00828*
X00948Y00828*
X00948Y00829*
X00948Y00829*
X00948Y00829*
X00948Y00829*
X00948Y0083*
X00947Y0083*
X00947Y0083*
X00947Y0083*
X00947Y0083*
X00947Y00831*
X00946Y00831*
X00946Y00831*
X00946Y00831*
X00946Y00831*
X00945Y00831*
X00945Y00831*
X00945Y00831*
X00945Y00831*
X00944*
X00944Y00831*
X00944Y00831*
X00943Y00831*
X00943Y00831*
X00943Y00831*
X00943Y00831*
X00942Y00831*
X00942Y00831*
X00942Y0083*
X00942Y0083*
X00942Y0083*
X00941Y0083*
X00941Y0083*
X00941Y00829*
X00941Y00829*
X00941Y00829*
X00941Y00829*
X00941Y00828*
X00941Y00828*
X0094Y00828*
X0094Y00828*
X0094Y00827*
X0094Y00827*
X0094Y00827*
X00941Y00826*
X00941Y00826*
X00941Y00826*
X00941Y00826*
X00941Y00825*
X00941Y00825*
X00941Y00825*
X00941Y00825*
X00942Y00825*
X00942Y00824*
X00942Y00824*
X00942Y00824*
X00942Y00824*
X00943Y00824*
X00943Y00824*
X00943Y00824*
X00943Y00823*
X00944Y00823*
X00944Y00823*
X00944Y00823*
X00945*
X00945Y00823*
X00945Y00823*
X00945Y00823*
X00946Y00824*
X00946Y00824*
X00946Y00824*
X00946Y00824*
X00947Y00824*
X00947Y00824*
X00947Y00824*
X00947Y00825*
X00947Y00825*
X00948Y00825*
X00948Y00825*
X00948Y00825*
X00948Y00826*
X00948Y00826*
X00948Y00826*
X00948Y00826*
X00948Y00827*
X00948Y00827*
X00948Y00827*
G54D43*
X02676Y01096D02*
D01*
X02676Y01097*
X02676Y01098*
X02675Y01099*
X02675Y011*
X02675Y01101*
X02675Y01102*
X02674Y01103*
X02674Y01104*
X02673Y01105*
X02672Y01106*
X02672Y01106*
X02671Y01107*
X0267Y01108*
X02669Y01108*
X02668Y01109*
X02667Y01109*
X02666Y0111*
X02665Y0111*
X02664Y01111*
X02663Y01111*
X02662Y01111*
X02661Y01111*
X0266*
X02659Y01111*
X02658Y01111*
X02657Y01111*
X02656Y0111*
X02655Y0111*
X02654Y01109*
X02653Y01109*
X02652Y01108*
X02652Y01108*
X02651Y01107*
X0265Y01106*
X02649Y01106*
X02649Y01105*
X02648Y01104*
X02648Y01103*
X02647Y01102*
X02647Y01101*
X02646Y011*
X02646Y01099*
X02646Y01098*
X02646Y01097*
X02646Y01096*
D01*
X02646Y01095*
X02646Y01094*
X02646Y01093*
X02646Y01092*
X02647Y01091*
X02647Y0109*
X02648Y01089*
X02648Y01088*
X02649Y01087*
X02649Y01086*
X0265Y01086*
X02651Y01085*
X02652Y01084*
X02652Y01084*
X02653Y01083*
X02654Y01082*
X02655Y01082*
X02656Y01082*
X02657Y01081*
X02658Y01081*
X02659Y01081*
X0266Y01081*
X02661*
X02662Y01081*
X02663Y01081*
X02664Y01081*
X02665Y01082*
X02666Y01082*
X02667Y01082*
X02668Y01083*
X02669Y01084*
X0267Y01084*
X02671Y01085*
X02672Y01086*
X02672Y01086*
X02673Y01087*
X02674Y01088*
X02674Y01089*
X02675Y0109*
X02675Y01091*
X02675Y01092*
X02675Y01093*
X02676Y01094*
X02676Y01095*
X02676Y01096*
X02673Y00062D02*
D01*
X02673Y00063*
X02673Y00064*
X02672Y00065*
X02672Y00066*
X02672Y00067*
X02671Y00068*
X02671Y00069*
X0267Y00069*
X0267Y0007*
X02669Y00071*
X02668Y00072*
X02668Y00073*
X02667Y00073*
X02666Y00074*
X02665Y00074*
X02664Y00075*
X02663Y00075*
X02662Y00076*
X02661Y00076*
X0266Y00076*
X02659Y00076*
X02658Y00076*
X02657*
X02656Y00076*
X02655Y00076*
X02654Y00076*
X02653Y00076*
X02652Y00075*
X02651Y00075*
X0265Y00074*
X02649Y00074*
X02648Y00073*
X02648Y00073*
X02647Y00072*
X02646Y00071*
X02646Y0007*
X02645Y00069*
X02644Y00069*
X02644Y00068*
X02644Y00067*
X02643Y00066*
X02643Y00065*
X02643Y00064*
X02643Y00063*
X02643Y00062*
D01*
X02643Y0006*
X02643Y00059*
X02643Y00058*
X02643Y00057*
X02644Y00056*
X02644Y00055*
X02644Y00054*
X02645Y00054*
X02646Y00053*
X02646Y00052*
X02647Y00051*
X02648Y0005*
X02648Y0005*
X02649Y00049*
X0265Y00049*
X02651Y00048*
X02652Y00048*
X02653Y00047*
X02654Y00047*
X02655Y00047*
X02656Y00047*
X02657Y00047*
X02658*
X02659Y00047*
X0266Y00047*
X02661Y00047*
X02662Y00047*
X02663Y00048*
X02664Y00048*
X02665Y00049*
X02666Y00049*
X02667Y0005*
X02668Y0005*
X02668Y00051*
X02669Y00052*
X0267Y00053*
X0267Y00054*
X02671Y00054*
X02671Y00055*
X02672Y00056*
X02672Y00057*
X02672Y00058*
X02673Y00059*
X02673Y0006*
X02673Y00062*
G54D44*
X00864Y00552D02*
D01*
X00865Y00552*
X00865Y00552*
X00865Y00552*
X00866Y00552*
X00866Y00552*
X00866Y00553*
X00867Y00553*
X00867Y00553*
X00867Y00553*
X00867Y00553*
X00868Y00554*
X00868Y00554*
X00868Y00554*
X00868Y00554*
X00869Y00555*
X00869Y00555*
X00869Y00555*
X00869Y00556*
X00869Y00556*
X00869Y00556*
X00869Y00557*
X00869Y00557*
Y00557*
X00869Y00558*
X00869Y00558*
X00869Y00558*
X00869Y00559*
X00869Y00559*
X00869Y00559*
X00869Y0056*
X00868Y0056*
X00868Y0056*
X00868Y0056*
X00868Y00561*
X00867Y00561*
X00867Y00561*
X00867Y00561*
X00867Y00562*
X00866Y00562*
X00866Y00562*
X00866Y00562*
X00865Y00562*
X00865Y00562*
X00865Y00562*
X00864Y00562*
D01*
X00864Y00562*
X00864Y00562*
X00863Y00562*
X00863Y00562*
X00863Y00562*
X00862Y00562*
X00862Y00562*
X00862Y00561*
X00861Y00561*
X00861Y00561*
X00861Y00561*
X00861Y0056*
X0086Y0056*
X0086Y0056*
X0086Y0056*
X0086Y00559*
X0086Y00559*
X00859Y00559*
X00859Y00558*
X00859Y00558*
X00859Y00558*
X00859Y00557*
Y00557*
X00859Y00557*
X00859Y00556*
X00859Y00556*
X00859Y00556*
X0086Y00555*
X0086Y00555*
X0086Y00555*
X0086Y00554*
X0086Y00554*
X00861Y00554*
X00861Y00554*
X00861Y00553*
X00861Y00553*
X00862Y00553*
X00862Y00553*
X00862Y00553*
X00863Y00552*
X00863Y00552*
X00863Y00552*
X00864Y00552*
X00864Y00552*
X00864Y00552*
X00861Y00951D02*
D01*
X00861Y00951*
X00861Y00951*
X0086Y00951*
X0086Y00951*
X0086Y00951*
X00859Y0095*
X00859Y0095*
X00859Y0095*
X00858Y0095*
X00858Y0095*
X00858Y0095*
X00858Y00949*
X00857Y00949*
X00857Y00949*
X00857Y00948*
X00857Y00948*
X00857Y00948*
X00857Y00947*
X00856Y00947*
X00856Y00947*
X00856Y00946*
X00856Y00946*
Y00946*
X00856Y00945*
X00856Y00945*
X00856Y00945*
X00857Y00944*
X00857Y00944*
X00857Y00944*
X00857Y00943*
X00857Y00943*
X00857Y00943*
X00858Y00943*
X00858Y00942*
X00858Y00942*
X00858Y00942*
X00859Y00942*
X00859Y00942*
X00859Y00941*
X0086Y00941*
X0086Y00941*
X0086Y00941*
X00861Y00941*
X00861Y00941*
X00861Y00941*
D01*
X00862Y00941*
X00862Y00941*
X00862Y00941*
X00863Y00941*
X00863Y00941*
X00863Y00941*
X00864Y00942*
X00864Y00942*
X00864Y00942*
X00864Y00942*
X00865Y00942*
X00865Y00943*
X00865Y00943*
X00865Y00943*
X00866Y00943*
X00866Y00944*
X00866Y00944*
X00866Y00944*
X00866Y00945*
X00866Y00945*
X00866Y00945*
X00866Y00946*
Y00946*
X00866Y00946*
X00866Y00947*
X00866Y00947*
X00866Y00947*
X00866Y00948*
X00866Y00948*
X00866Y00948*
X00865Y00949*
X00865Y00949*
X00865Y00949*
X00865Y0095*
X00864Y0095*
X00864Y0095*
X00864Y0095*
X00864Y0095*
X00863Y0095*
X00863Y00951*
X00863Y00951*
X00862Y00951*
X00862Y00951*
X00862Y00951*
X00861Y00951*
G54D45*
X01418Y00762D02*
Y00783D01*
Y00625D02*
Y00647D01*
X01575Y00762D02*
Y00783D01*
Y00625D02*
Y00647D01*
X01418Y00783D02*
X01439D01*
X01418Y00625D02*
X01439D01*
X01554Y00783D02*
X01575D01*
X01554Y00625D02*
X01575D01*
X00955Y00337D02*
Y00475D01*
Y00337D02*
X01004D01*
X01211D02*
Y00475D01*
X01162Y00337D02*
X01211D01*
X02637Y00885D02*
X02836D01*
X02029Y00279D02*
Y00885D01*
X02637Y00279D02*
X02836D01*
Y00885*
X00981Y00704D02*
Y00741D01*
X01095Y00704D02*
Y00741D01*
X01062Y00704D02*
X01095D01*
X00981D02*
X01013D01*
X0177Y0072D02*
Y00759D01*
X01731Y0072D02*
Y00759D01*
X01819Y00723D02*
Y00763D01*
X01781Y00723D02*
Y00763D01*
X0109Y00856D02*
Y00893D01*
X00976Y00856D02*
Y00893D01*
X01009*
X01057D02*
X0109D01*
G54D46*
X00226Y01042D02*
Y0115D01*
X02636*
Y01042D02*
Y0115D01*
X00226Y01042D02*
X02636D01*
X00654Y0052D02*
X00754D01*
X00827Y00281D02*
Y00513D01*
X00654Y00274D02*
X00754D01*
X00581Y00281D02*
Y00513D01*
X00223Y00008D02*
Y00116D01*
X02633*
Y00008D02*
Y00116D01*
X00223Y00008D02*
X02633D01*
X00578Y0067D02*
Y00902D01*
X00651Y00663D02*
X00751D01*
X00824Y0067D02*
Y00902D01*
X00651Y00909D02*
X00751D01*
G54D47*
X00127Y00989D02*
X00181D01*
X00127Y00626D02*
X00181D01*
X-00016D02*
X00015D01*
X-00016D02*
Y00989D01*
X00015*
X00129Y00552D02*
X00183D01*
X00129Y00188D02*
X00183D01*
X-00014D02*
X00017D01*
X-00014D02*
Y00552D01*
X00017*
M02*